<?xml version="1.0" standalone="no"?>
<!DOCTYPE svg PUBLIC "-//W3C//DTD SVG 1.1//EN" "http://www.w3.org/Graphics/SVG/1.1/DTD/svg11.dtd" >
<svg xmlns="http://www.w3.org/2000/svg">
<metadata></metadata>
<defs>
<font id="inconsolatamedium" horiz-adv-x="500" >
<font-face units-per-em="1000" ascent="820" descent="-180" />
<missing-glyph horiz-adv-x="500" />
<glyph unicode=" " />
<glyph unicode="!" d="M299 47.5q0 -24.5 -17.5 -41.5t-42 -17t-42 17t-17.5 42q0 16 8 29.5t21.5 21.5t29.5 8q25 0 42.5 -17.5t17.5 -42zM241 668q15 0 28.5 -11t19.5 -32q3 -15 3 -41q0 -16 -1.5 -35.5t-4 -41.5t-3.5 -37l-18 -276h-50l-15 276q-1 28 -3.5 52.5t-4.5 40.5t-2 30q0 26 7 43 q13 32 44 32z" />
<glyph unicode="&#x22;" d="M397 605q0 -35 -34 -127l-24 -66l-55 13l22 68q9 30 9 55q0 11 -3 32t-3 31q0 28 13 41.5t30 13.5t31 -15t14 -46zM224 605q0 -35 -33 -127l-24 -66l-56 13l22 68q10 30 10 55q0 11 -3.5 32t-3.5 31q0 28 13 41.5t30 13.5t31 -15t14 -46z" />
<glyph unicode="#" d="M173 624l61 3l-21 -172l110 1l20 163l62 2l-20 -164l91 1l-6 -48l-91 -1l-21 -168l99 2l-5 -47l-99 -2l-22 -180l-61 -4l22 183l-111 -1l-21 -178l-59 -3l21 180l-97 -2l4 46l99 2l20 170l-109 -1l3 47l111 1zM207 407l-20 -169l110 2l21 168z" />
<glyph unicode="$" d="M235 651h64q1 -2 1 -4q0 -3 -3.5 -7.5t-3.5 -9.5v-38q93 -10 149 -77l-43 -54q-5 1 -5 7l-1 8q-1 2 -5 6q-34 41 -95 51v-193q45 -15 67 -24q100 -43 100 -135q0 -58 -43.5 -106t-123.5 -59v-63h-58v61q-108 7 -175 80l43 60q4 -3 4 -10t3 -11q50 -53 125 -61v220 q-32 10 -55 21q-101 48 -101 133q0 54 43.5 95t112.5 50v60zM293 273v-199q47 9 74.5 38.5t27.5 64.5q0 49 -50 76q-17 9 -52 20zM235 361v173q-44 -5 -67 -28t-23 -52q0 -45 55 -77q14 -8 35 -16z" />
<glyph unicode="%" d="M391 623h67l-348 -623h-64zM140 634q46 0 79 -37.5t33 -94.5q0 -55 -32.5 -92t-78.5 -37q-31 0 -56.5 17t-41 47t-15.5 67q0 56 33 93t79 37zM138 582q-8 0 -16 -3.5t-15.5 -11.5t-12.5 -23.5t-5 -36.5q0 -19 3.5 -34t9 -23.5t12.5 -14t13.5 -7.5t12.5 -2q19 0 34 17.5 t15 56.5q0 47 -16 64.5t-35 17.5zM482 120q0 -56 -32.5 -93t-78.5 -37t-79 37t-33 92q0 56 33 93t79 37q30 0 55.5 -16.5t40.5 -46.5t15 -66zM370 198q-20 0 -36 -18.5t-16 -60.5q0 -40 16.5 -59.5t36.5 -19.5t36 18.5t16 58.5q0 43 -16.5 62t-36.5 19z" />
<glyph unicode="&#x26;" d="M229 629q57 0 95.5 -38t38.5 -95q0 -49 -29.5 -94.5t-78.5 -71.5l112 -157q31 36 45 81q1 4 1 8q0 2 -0.5 5.5t-0.5 6.5q0 6 4 10l65 -45q-34 -61 -76 -116l70 -91l-59 -44l-55 88q-31 -39 -75.5 -62.5t-93.5 -23.5q-67 0 -111.5 44.5t-44.5 111.5q0 58 34.5 111.5 t91.5 85.5q-71 85 -71 155q0 56 40 93.5t98 37.5zM160 497q0 -48 61 -124q35 19 55.5 51.5t20.5 66.5q0 35 -20.5 57t-48.5 22t-48 -20.5t-20 -52.5zM197 296q-40 -25 -62.5 -64t-22.5 -79q0 -43 26 -71t65 -28q30 0 60 17.5t46 34.5l15 17z" />
<glyph unicode="'" d="M319 605q0 -35 -33 -127l-25 -66l-55 13l22 68q10 30 10 55q0 11 -3.5 32t-3.5 31q0 28 13 41.5t30 13.5t31 -15t14 -46z" />
<glyph unicode="(" d="M392 666l30 -61q-4 -2 -8 -2h-4t-3.5 0.5t-3.5 0.5q-3 0 -9 -3q-87 -52 -136.5 -142t-49.5 -197q0 -118 58 -220.5t159 -161.5l-32 -53q-119 62 -186.5 178t-67.5 253t68 247t185 161z" />
<glyph unicode=")" d="M78 603l19 62q60 -27 110 -71t84.5 -97.5t53.5 -116.5t19 -129q0 -135 -74 -250.5t-199 -174.5l-19 60q102 54 161.5 151.5t59.5 210.5q0 111 -58 206.5t-157 148.5z" />
<glyph unicode="*" d="M213 519h81q-1 -6 -3 -13.5t-3 -13.5l-15 -150l159 72l26 -61l-171 -52l126 -151l-55 -43l-108 166l-112 -167l-54 44l130 150l-173 53l26 65l162 -76z" />
<glyph unicode="+" d="M222 523h63v-171h171v-61h-171v-187h-63v187h-177v61h177v171z" />
<glyph unicode="," d="M306 20q0 -80 -107 -188l-34 30q28 26 50 62q15 24 15 42q0 20 -23 35q-28 19 -28 45q0 23 16.5 40t40.5 17q28 0 49 -23t21 -60z" />
<glyph unicode="-" d="M71 348h360v-67h-360v67z" />
<glyph unicode="." d="M298 46q0 -24 -17.5 -40.5t-41.5 -16.5q-17 0 -30.5 7.5t-21.5 21t-8 28.5q0 24 17.5 41t42 17t42 -17t17.5 -41z" />
<glyph unicode="/" d="M64 -13l313 678l60 -31l-314 -676z" />
<glyph unicode="0" d="M251 627q37 0 72 -21.5t63.5 -61t46 -103t17.5 -140.5q0 -62 -12 -114.5t-31.5 -88t-45.5 -61t-53.5 -37t-55.5 -11.5q-79 0 -140.5 87t-61.5 231q0 72 17.5 133.5t46 101.5t64.5 62.5t73 22.5zM349 485q-20 40 -46 60.5t-53 20.5q-51 0 -93 -67.5t-42 -179.5 q0 -64 14 -118zM372 418l-220 -280q21 -41 48 -63t55 -22q22 0 43.5 13.5t41.5 40.5t32.5 75.5t12.5 110.5q0 69 -13 125z" />
<glyph unicode="1" d="M299 624v-625h-69v538l-126 -37l-16 39l163 85h48z" />
<glyph unicode="2" d="M78 526q27 47 74 74t100 27q76 0 128.5 -51t52.5 -124q0 -31 -10 -61t-28.5 -55.5t-34 -42t-37.5 -37.5q-3 -3 -20 -18.5t-24.5 -23t-24 -23.5t-27 -28.5t-24.5 -29.5t-26.5 -35t-22.5 -37h261q6 0 11 4q7 7 13 5v-70h-366v44q37 73 80 126t101 106q22 19 30 26.5 t27.5 28.5t28 35.5t16.5 37t8 43.5q0 50 -35 84.5t-85 34.5q-37 0 -65 -18t-42 -39q-2 -4 -3.5 -11.5t-4.5 -11.5z" />
<glyph unicode="3" d="M411 467q0 -45 -25.5 -82t-67.5 -53q48 -17 77.5 -61t29.5 -100q0 -75 -53 -128.5t-139 -53.5q-100 0 -164 71l53 63q4 -4 6 -13.5t7 -14.5q5 -6 14 -13.5t33 -18t50 -10.5q54 0 90 37.5t36 89.5q0 55 -41 86.5t-106 31.5q-16 0 -31 -2v56q62 0 98 16q31 14 48.5 41 t17.5 57q0 26 -13.5 48t-38.5 35.5t-56 13.5q-63 0 -107 -48l-39 43q61 67 149 67q37 0 69 -12.5t54.5 -34t35.5 -50.5t13 -61z" />
<glyph unicode="4" d="M313 624h59v-390h80v-62h-80v-172h-73v173h-251v51zM300 513l-183 -279h183v279z" />
<glyph unicode="5" d="M106 623h316v-63h-257l-10 -179q49 24 102 24t95 -24t67.5 -71.5t25.5 -112.5q0 -98 -56 -153t-140 -55q-56 0 -105 25t-80 71l62 46q5 -3 5.5 -12t1.5 -11q4 -7 16 -18.5t40 -25.5t59 -14q53 0 89.5 39.5t36.5 108.5q0 71 -37.5 110t-90.5 39q-32 0 -63 -15.5t-54 -43.5 l-44 18z" />
<glyph unicode="6" d="M287 630q79 0 137 -57l-49 -53q-5 3 -8.5 11.5t-6 10.5l-7.5 6t-14.5 8.5t-23 8t-27.5 3.5q-17 0 -33.5 -4t-38.5 -19.5t-38 -40t-28.5 -70.5t-13.5 -107q21 35 56.5 55t75.5 20q70 0 120.5 -55.5t50.5 -148.5t-52 -150.5t-126 -57.5q-42 0 -81 21t-66 61q-47 72 -47 212 q0 116 27 191q18 53 50.5 88.5t68 51t74.5 15.5zM262 341q-23 0 -46 -10.5t-42.5 -29.5t-33.5 -44q-6 -86 30.5 -145.5t93.5 -59.5q44 0 75.5 37t31.5 106q0 74 -33 110t-76 36z" />
<glyph unicode="7" d="M79 623h353v-39q-64 -144 -119 -292q-53 -145 -99 -292h-79q56 168 120 333q43 113 90 224h-266v66z" />
<glyph unicode="8" d="M258 631q69 0 115.5 -43t46.5 -105q0 -45 -27 -85.5t-72 -64.5q54 -25 87 -71.5t33 -100.5q0 -47 -24.5 -86.5t-69 -62t-97.5 -22.5q-81 0 -135.5 48.5t-54.5 118.5q0 35 16 69t44 61t65 44q-43 22 -69 61.5t-26 84.5q0 64 48.5 109t119.5 45zM237 303q-45 -19 -75 -56.5 t-30 -80.5q0 -47 35 -80t86 -33q49 0 83 31.5t34 77t-36 84t-97 57.5zM253 572q-27 0 -49 -12t-34.5 -32t-12.5 -45q0 -23 11.5 -44.5t27.5 -35.5t32 -24.5t27 -15.5l12 -5q24 13 43 32t30.5 42t11.5 47q0 15 -5 29.5t-14 26t-21 20t-27.5 13t-31.5 4.5z" />
<glyph unicode="9" d="M217 -10q-80 0 -138 57l49 53q4 -3 6.5 -7.5t4.5 -9t5 -7.5q29 -23 75 -23q37 0 71 21t52 65q23 53 26 154q-22 -31 -56 -49t-73 -18q-70 0 -120.5 55t-50.5 142q0 89 52.5 147.5t126.5 58.5q53 0 99.5 -34t69.5 -101q21 -63 21 -174q0 -115 -26 -185q-27 -72 -80 -108.5 t-114 -36.5zM246 287q34 0 65.5 20.5t52.5 55.5q8 91 -27.5 147.5t-91.5 56.5q-45 0 -77 -38t-32 -103q0 -66 32.5 -102.5t77.5 -36.5z" />
<glyph unicode=":" d="M298 365.5q0 -23.5 -17.5 -40.5t-41.5 -17q-17 0 -30.5 8t-21.5 21t-8 28.5t8 28.5t21.5 21t30.5 8q24 0 41.5 -17t17.5 -40.5zM298 46q0 -24 -17.5 -40.5t-41.5 -16.5q-17 0 -30.5 7.5t-21.5 21t-8 28.5q0 24 17.5 41t42 17t42 -17t17.5 -41z" />
<glyph unicode=";" d="M306 20q0 -80 -107 -188l-34 30q28 26 50 62q15 24 15 42q0 20 -23 35q-28 19 -28 45q0 23 16.5 40t40.5 17q28 0 49 -23t21 -60zM298 365.5q0 -23.5 -17.5 -40.5t-41.5 -17q-17 0 -30.5 8t-21.5 21t-8 28.5t8 28.5t21.5 21t30.5 8q24 0 41.5 -17t17.5 -40.5z" />
<glyph unicode="&#x3c;" d="M458 496v71l-423 -223v-48l426 -249v76l-350 196z" />
<glyph unicode="=" d="M45 438h411v-61h-411v61zM45 231h411v-61h-411v61z" />
<glyph unicode="&#x3e;" d="M42 496v71l424 -223v-48l-426 -249v76l349 196z" />
<glyph unicode="?" d="M320 44q0 -15 -8 -28.5t-21.5 -21t-29.5 -7.5q-25 0 -42 17t-17 40.5t17 40.5t42 17t42 -17t17 -41zM64 561q32 49 84 76.5t109 27.5q81 0 129 -51.5t48 -124.5q0 -27 -6 -49t-20 -41t-22.5 -28t-28 -25t-22.5 -18q-28 -25 -35.5 -47.5t-7.5 -54.5v-41h-66v41 q0 40 8.5 68t38.5 61q4 4 19.5 20t23 25t18.5 25.5t16 33.5t5 35q0 45 -30 75.5t-75 30.5q-25 0 -50.5 -10.5t-47.5 -30t-37 -46.5z" />
<glyph unicode="@" d="M435 30q-64 -41 -140 -41q-39 0 -75.5 11t-71 36.5t-60.5 62.5t-41.5 92.5t-15.5 122.5q0 81 22 144.5t57.5 100.5t76.5 55.5t84 18.5q56 0 102 -29.5t70 -81.5q22 -50 22 -144v-203h-60v38q-39 -46 -100 -46q-35 0 -65 17t-47.5 47t-17.5 66q0 42 25 78t70 54 q40 15 117 15h15q0 56 -39 95.5t-95 39.5q-33 0 -64.5 -16t-57.5 -47t-41.5 -82.5t-15.5 -116.5q0 -56 12.5 -102.5t34 -77.5t49 -52t57 -30t59.5 -9q58 0 107 33zM405 394h-17q-77 0 -111 -23q-40 -27 -40 -71q0 -33 23 -55.5t56 -22.5q23 0 43 11.5t31 33.5q7 14 10.5 35 t4 32.5t0.5 40.5v19z" />
<glyph unicode="A" d="M15 -1l220 635h8l240 -634h-72l-69 182h-198l-60 -183h-69zM326 236l-88 238l-80 -238h168z" />
<glyph unicode="B" d="M48 623h177q77 0 117 -17q43 -19 66.5 -55.5t23.5 -79.5q0 -45 -25 -82.5t-67 -54.5q52 -18 84.5 -62.5t32.5 -98.5q0 -50 -27.5 -91.5t-76.5 -62.5q-44 -19 -129 -19h-176v623zM117 564v-199h98q57 0 86 12.5t45 36t16 50.5q0 28 -16.5 52t-46.5 36q-28 12 -83 12h-99z M117 306v-245h119q53 0 81 13q31 14 48.5 42.5t17.5 63.5q0 34 -18.5 64.5t-51.5 46.5q-33 15 -94 15h-102z" />
<glyph unicode="C" d="M278 628q41 0 78.5 -15t66.5 -43t46 -65l-67 -33q-4 3 -4 10v4v3q0 5 -3 11q-20 33 -52 52.5t-68 19.5q-69 0 -117.5 -69.5t-48.5 -188.5q0 -121 50 -192.5t122 -71.5q37 0 71.5 20.5t55.5 55.5l52 -34q-29 -48 -78 -75t-105 -27q-32 0 -64 9.5t-63.5 33t-55.5 59 t-38.5 91.5t-14.5 125q0 72 15.5 129t39.5 92t56.5 58t63 32t62.5 9z" />
<glyph unicode="D" d="M54 623h145q48 0 81 -6.5t64 -26.5q30 -19 52.5 -48.5t36 -65.5t20.5 -77t7 -86q0 -69 -15.5 -125.5t-47 -98.5t-75.5 -65q-49 -25 -135 -25h-133v624zM120 564v-510h64q37 0 63.5 5.5t52.5 22.5q90 61 90 221q0 162 -78 226q-26 22 -53 28.5t-64 6.5h-75z" />
<glyph unicode="E" d="M59 624h382v-62h-316v-205h261v-64h-261v-231h313v-62h-379v624z" />
<glyph unicode="F" d="M78 624h359v-61h-289v-196h233v-61h-233v-306h-70v624z" />
<glyph unicode="G" d="M277 629q58 0 106 -28t75 -76l-49 -50q-6 4 -13 19q-15 33 -47 53.5t-72 20.5q-42 0 -79.5 -23t-60.5 -66q-32 -59 -32 -160q0 -145 60 -213q47 -54 118 -54q59 0 112 38v148h-113v61h178v-244q-88 -65 -183 -65q-34 0 -67 10t-65 33.5t-55.5 58t-38.5 89.5t-15 123 q0 78 17.5 138.5t43.5 94.5t60 56t63 29t57 7z" />
<glyph unicode="H" d="M54 623h78q1 -2 1 -5t-3 -8t-3 -11v-243h244v267h76q1 -2 1 -4q0 -4 -3.5 -8.5t-3.5 -9.5v-602h-71v298h-243v-297h-73v623z" />
<glyph unicode="I" d="M88 623h309v-59h-123v-507h129v-58h-322v59h123v506h-116v59z" />
<glyph unicode="J" d="M172 623h285v-59h-96v-355q0 -30 -1 -47.5t-6.5 -43t-17.5 -46.5q-21 -40 -58.5 -61.5t-82.5 -21.5q-42 0 -80 18t-66 51l47 57q3 -3 3.5 -9.5t2.5 -8.5q4 -5 13.5 -14t33 -20.5t47.5 -11.5q47 0 73 39q11 16 16.5 39.5t6 37t0.5 41.5v356h-120v59z" />
<glyph unicode="K" d="M42 624h84q1 -6 -6 -14q-3 -5 -3 -12v-262l260 292q20 -5 52 -5h26l-236 -269l252 -355l-89 -3l-216 316l-49 -54v-258h-75v624z" />
<glyph unicode="L" d="M66 623h82q1 -7 -4 -16t-5 -18v-529h300v-61h-373v624z" />
<glyph unicode="M" d="M41 623h55l154 -305l157 306h53v-625h-66v471l-135 -251h-27l-126 248v-468h-65v624z" />
<glyph unicode="N" d="M50 0v623h68l262 -462v463h74q1 -6 -3 -13t-4 -14v-598h-55l-275 491v-490h-67z" />
<glyph unicode="O" d="M471 310q0 -124 -37 -199q-20 -40 -50 -68t-62.5 -40.5t-67.5 -12.5q-30 0 -60 10t-60 34t-53 59.5t-37.5 92t-14.5 127.5q0 59 10 108t27.5 83t39.5 59t48 39.5t50.5 21t49.5 6.5q53 0 101.5 -30t77.5 -87q38 -75 38 -203zM251 564q-27 0 -52 -12t-48.5 -38.5t-38 -76 t-14.5 -115.5q0 -71 14.5 -124.5t38 -82.5t49.5 -42.5t54 -13.5q35 0 67 20.5t52 63.5q28 59 28 158q0 105 -24 165q-20 50 -54.5 74t-71.5 24z" />
<glyph unicode="P" d="M59 623h190q76 0 117 -21q43 -22 66.5 -64t23.5 -90.5t-23 -89.5t-65 -63q-40 -20 -114 -20h-123v-275h-72v623zM131 557l-1 -220h126q47 0 73 12q26 14 40.5 39.5t14.5 55.5q0 32 -15.5 59t-43.5 41q-27 13 -76 13h-118z" />
<glyph unicode="Q" d="M251 566q-28 0 -53.5 -13t-48.5 -39.5t-37.5 -76t-14.5 -114.5q0 -71 14.5 -125t37.5 -84t50 -44.5t56 -14.5q18 0 36 5.5t39 22t37 42t26.5 71t10.5 105.5q0 103 -25 166q-21 51 -56 75t-72 24zM471 309q0 -124 -37 -199q-16 -33 -40 -58t-50.5 -39t-56.5 -20 q2 -33 17 -54t57 -21q12 0 39.5 2.5t41.5 2.5l-2 -68h-39h-36.5t-27.5 1.5t-28.5 5t-22.5 8.5q-61 31 -60 123q-29 4 -55.5 17t-52.5 38t-45.5 60t-31.5 87.5t-12 116.5q0 71 15 127.5t37.5 91t53 58t60 32.5t59.5 9q35 0 67.5 -12.5t62.5 -40t50 -66.5q37 -74 37 -202z" />
<glyph unicode="R" d="M56 623h184q78 0 119 -21q42 -21 65 -61.5t23 -88.5q0 -62 -35 -110.5t-92 -63.5l144 -278h-78l-138 275h-121v-275h-71v623zM127 557v-220h121q47 0 72 12q27 14 41 39.5t14 55.5q0 32 -15 59t-44 41q-26 13 -76 13h-113z" />
<glyph unicode="S" d="M435 549l-44 -60q-5 2 -5.5 8.5t-2.5 9.5q-19 28 -52 45t-74 17q-52 0 -82.5 -27t-30.5 -64q0 -56 64 -93q14 -9 90.5 -41t108.5 -62q48 -45 48 -112q0 -32 -11.5 -62t-35 -57.5t-65 -44t-96.5 -16.5q-121 0 -195 80l41 72q5 -3 5 -10t3 -11q23 -29 62 -48.5t86 -19.5 q64 0 100.5 34t36.5 79q0 53 -53 86q-18 11 -90 40.5t-104 52.5q-67 49 -67 122q0 65 54 112.5t136 47.5q51 0 96 -20.5t77 -57.5z" />
<glyph unicode="T" d="M31 624h432v-63h-184v-562h-71v562h-177v63z" />
<glyph unicode="U" d="M50 623h79q1 -2 1 -5q0 -4 -7 -14q-4 -5 -4 -13v-377q0 -60 15 -92q16 -35 48.5 -54.5t70.5 -19.5q37 0 69.5 19t48.5 54q16 33 16 96v406h67v-405q0 -42 -4.5 -72.5t-20.5 -59.5q-26 -47 -73.5 -72t-103.5 -25q-57 0 -104.5 25t-73.5 72q-15 28 -19.5 57.5t-4.5 71.5 v408z" />
<glyph unicode="V" d="M25 624h73l160 -479l151 478h69l-209 -627h-32z" />
<glyph unicode="W" d="M17 623h65l67 -421l100 375h22l101 -377l57 423h59l-99 -627h-27l-107 411l-109 -411h-29z" />
<glyph unicode="X" d="M379 624h70l-158 -305l177 -319h-79l-138 247l-134 -247h-76l170 318l-167 306h75l131 -237z" />
<glyph unicode="Y" d="M28 624h80l153 -303l138 302h74l-177 -377v-246h-76v246z" />
<glyph unicode="Z" d="M62 623h385l-1 -49l-308 -513h294q7 0 15.5 3.5t15.5 2.5v-68h-413v49l314 512h-302v63z" />
<glyph unicode="[" d="M131 670h286v-60h-222v-642h223v-57h-287v759z" />
<glyph unicode="\" d="M437 -13l-59 -29l-314 676l59 31z" />
<glyph unicode="]" d="M369 670v-759h-286v57h223v642h-222v60h285z" />
<glyph unicode="^" d="M93 367l153 256h22l135 -255l-53 -25l-97 175l-110 -175z" />
<glyph unicode="_" d="M35 -19h431v-61h-431v61z" />
<glyph unicode="`" d="M219 461q-22 27 -55 118l-25 67l52 25l26 -66q12 -29 28 -48q7 -9 23 -23t23 -22q17 -24 16 -41.5t-14 -27.5q-8 -7 -19 -9t-26 4.5t-29 22.5z" />
<glyph unicode="a" d="M91 403q61 64 163 64q54 0 95 -19.5t64 -56.5q22 -37 22 -108v-283h-68v50q-75 -61 -164 -61q-69 0 -111.5 38t-42.5 91q0 40 26.5 76t78.5 55q27 10 65 14.5t61 5t71 0.5h15v17q0 54 -15 78q-27 44 -94 44q-82 0 -131 -51zM369 214h-17q-5 0 -35.5 0.5t-43.5 0t-34.5 -2 t-36.5 -5.5q-40 -10 -60.5 -33.5t-20.5 -50.5q0 -32 26.5 -55.5t69.5 -23.5q40 0 71 17t49 37q15 15 22 32t8.5 27.5t1.5 26.5v30z" />
<glyph unicode="b" d="M60 665h84q2 -5 -5 -11q-6 -4 -6 -11v-256q22 37 59.5 59t81.5 22q34 0 66.5 -14.5t59 -42.5t42 -73.5t15.5 -103.5q0 -60 -16.5 -108t-44 -77t-61 -44.5t-69.5 -15.5q-41 0 -76.5 19t-58.5 52l-25 -60h-46v665zM249 406q-35 0 -63 -18t-41 -49q-12 -29 -12 -96 q0 -69 3 -90q4 -31 17 -52t31.5 -30.5t33.5 -13.5t29 -4q13 0 26 3t29 9t30 18.5t25.5 30t18.5 44.5t7 61q0 46 -10.5 81t-25 54.5t-33.5 31.5t-34.5 16t-30.5 4z" />
<glyph unicode="c" d="M457 381l-51 -59q-5 3 -5 11.5t-1.5 11.5t-6 8.5t-14.5 15t-23 17t-33 13.5t-42 6q-64 0 -107.5 -46.5t-43.5 -122.5q0 -80 45 -131t112 -51q72 0 121 56l42 -49q-68 -72 -169 -72q-97 0 -161 68t-64 171t64.5 170.5t165.5 67.5q54 0 98.5 -22.5t72.5 -62.5z" />
<glyph unicode="d" d="M371 390v275h77q0 -6 -6 -15q-4 -6 -4 -13l1 -595q0 -25 5 -42h-72q-4 13 -4 34v39q-15 -25 -36.5 -44t-49 -29t-55.5 -10t-53.5 9t-49 28t-41 47t-28 68.5t-10.5 89.5q0 63 17.5 110.5t46.5 74t61 39.5t67 13q23 0 44.5 -6t38.5 -16t30 -24.5t21 -32.5zM240 410 q-21 0 -41.5 -8t-40 -25.5t-31.5 -52t-12 -80.5q0 -43 8.5 -77.5t21.5 -55t30.5 -34t34 -19t33.5 -5.5q37 0 68.5 23.5t44.5 63.5q9 30 9 83q0 69 -7 98q-13 46 -47 67.5t-71 21.5z" />
<glyph unicode="e" d="M259 468q29 0 56.5 -8.5t53.5 -26.5t44.5 -50.5t26.5 -76.5q7 -43 3 -88h-325q2 -48 18 -83.5t40 -53t48 -25.5t50 -8q72 0 118 51l40 -39q-59 -70 -164 -70q-97 0 -158 61.5t-61 171.5q0 119 60.5 182t149.5 63zM121 274h251q6 56 -28.5 97.5t-89.5 41.5q-20 0 -40 -7 t-39.5 -22t-34 -43.5t-19.5 -66.5z" />
<glyph unicode="f" d="M343 671q88 0 140 -63l-33 -66q-2 0 -4.5 2t-3.5 6q0 9 -2 12q-16 23 -42.5 37.5t-57.5 14.5q-64 0 -92 -50q-17 -30 -17 -99v-35h150v-57h-150v-373h-69v373h-99v57h99v45q0 76 25 116q24 39 65.5 59.5t90.5 20.5z" />
<glyph unicode="g" d="M126 314q0 -27 13.5 -50t36.5 -36.5t51 -13.5q41 0 70.5 29.5t29.5 70.5q0 28 -13.5 51t-36.5 36.5t-50 13.5q-42 0 -71.5 -29.5t-29.5 -71.5zM231 472q64 0 108 -44q55 46 127 41l9 -59q-13 2 -27 2q-43 0 -79 -22q23 -35 23 -77q0 -64 -48.5 -110.5t-116.5 -46.5 q-30 0 -58 11q-32 -27 -32 -52q0 -22 27 -30q21 -5 65 -5q9 0 38 0.5t43 0t35.5 -3.5t38.5 -10q35 -14 53 -41t18 -58q0 -25 -11.5 -48.5t-35 -44.5t-66 -34t-97.5 -13q-110 0 -158.5 32t-48.5 76q0 54 75 101q-37 20 -37 61q0 45 52 88q-32 21 -50 54t-18 70q0 67 51 114.5 t120 47.5zM161 24q-57 -31 -57 -71q0 -38 45 -56q38 -15 95 -15q65 0 102 20q43 24 43 61q0 11 -4.5 21.5t-17.5 19.5t-32 12q-12 2 -29.5 2.5t-33.5 0t-34 0.5q-48 2 -77 5z" />
<glyph unicode="h" d="M70 0v665h83v-3q0 -4 -6 -11q-4 -4 -4 -10v-265q27 41 67.5 66.5t84.5 25.5q40 0 72.5 -21.5t49.5 -59.5q16 -37 16 -110v-277h-71v275q0 17 -0.5 26.5t-2.5 24.5t-7.5 27.5t-13.5 22.5q-25 29 -62 29q-23 0 -46.5 -11.5t-38.5 -25t-25 -26.5q-23 -31 -23 -79v-263h-73z " />
<glyph unicode="i" d="M106 457h183v-399h107v-58h-296v58h117v341h-111v58zM254.5 656q21.5 0 36.5 -15t15 -36.5t-15 -36.5t-36 -15q-14 0 -26 7t-19 19t-7 26q0 21 15 36t36.5 15z" />
<glyph unicode="j" d="M126 457h243v-425q0 -37 -4 -63t-17 -52q-23 -44 -66 -67.5t-94 -23.5q-88 0 -140 64l47 62q3 -3 5 -9.5t4 -9.5q3 -6 11.5 -14.5t30.5 -19.5t46 -11q12 0 23 2.5t21.5 7t19.5 11.5t16 16t12 20q12 26 12 73v380h-170v59zM333.5 656q21.5 0 36.5 -15t15 -36.5t-15 -36.5 t-36.5 -15t-37 15t-15.5 36.5t15.5 36.5t37 15z" />
<glyph unicode="k" d="M66 665h82q1 -6 -5 -15q-4 -5 -4 -11v-392l229 212q21 -5 53 -5h26l-192 -181l224 -274h-7l-86 -3l-187 233l-60 -56v-174h-73v666z" />
<glyph unicode="l" d="M85 665h202v-607h134v-58h-342v58h135v549h-129v58z" />
<glyph unicode="m" d="M38 0v457h66v-45q16 25 41 40.5t52 15.5q20 0 37.5 -9t28.5 -24t15 -34q6 15 17 27.5t24.5 21t29 13.5t31.5 5q48 0 72 -37q9 -13 13 -31.5t4.5 -31t0.5 -36.5v-8v-325h-68v325q0 52 -6 66q-11 25 -36 25q-29 0 -53 -41q-20 -32 -20 -72v-302h-67v318q0 45 -4 60 q-11 35 -43 35t-55 -43q-14 -27 -14 -65v-305h-66z" />
<glyph unicode="n" d="M68 0v457h74v-81q26 41 66.5 66.5t84.5 25.5q40 0 72.5 -21.5t49.5 -59.5q17 -37 17 -110v-277h-71v275q0 13 -0.5 20.5t-1.5 20.5t-3.5 22t-7.5 19.5t-12 18.5q-24 29 -62 29q-32 0 -62.5 -20.5t-47.5 -42.5q-22 -31 -22 -79v-263h-74z" />
<glyph unicode="o" d="M460 226q0 -109 -60 -173.5t-145 -64.5q-89 0 -152 67.5t-63 169.5q0 104 64 173t153 69q83 0 143 -64t60 -177zM252 406q-56 0 -96 -47.5t-40 -127.5q0 -54 20 -96t51 -63.5t68 -21.5q54 0 93.5 46t39.5 127q0 88 -41 135.5t-95 47.5z" />
<glyph unicode="p" d="M60 457h73v-70q23 37 61.5 58.5t82.5 21.5q35 0 67.5 -14t59 -41.5t43 -73.5t16.5 -104q0 -61 -17 -109t-44.5 -77.5t-61 -44.5t-69.5 -15q-42 0 -78 19t-59 53v-227h-74v624zM251 406q-23 0 -44 -8t-37.5 -23t-24.5 -36q-12 -28 -12 -90q0 -42 0.5 -59.5t3.5 -39 t9 -35.5q13 -30 41.5 -46.5t62.5 -16.5q13 0 25.5 2.5t29 8.5t30.5 18.5t26.5 30t19.5 45t7 62.5q0 47 -11 82.5t-26 55t-35 31t-35 15t-30 3.5z" />
<glyph unicode="q" d="M374 390v67h68v-624h-72v240q-21 -38 -59 -60.5t-81 -22.5q-78 0 -133 67.5t-55 175.5q0 110 59 173t140 63q85 0 126 -67q7 -10 7 -12zM243 410q-52 0 -90 -42t-38 -125q0 -91 39 -140.5t92 -49.5q37 0 68.5 23.5t43.5 63.5q10 30 10 83q0 78 -11 109q-14 39 -46.5 58.5 t-67.5 19.5z" />
<glyph unicode="r" d="M99 457h75l-2 -88q21 47 66.5 73t97.5 26q74 0 122 -50l-33 -69q-5 4 -10.5 12.5t-6.5 10.5q-27 34 -76 34q-79 0 -128 -77q-15 -23 -22.5 -44t-8.5 -33t-1 -30v-223h-73v458z" />
<glyph unicode="s" d="M432 396l-42 -63q-5 1 -5 8t-2 10q-11 14 -26 26.5t-43 24t-58 11.5q-40 0 -68 -17.5t-28 -44.5q0 -34 45 -55q18 -9 78.5 -26.5t89.5 -33.5q67 -38 67 -104q0 -56 -51 -99t-139 -43q-115 0 -193 72l41 72q5 -2 4.5 -9.5t3.5 -10.5q7 -9 17.5 -17.5t29 -20t43.5 -19 t53 -7.5q49 0 83 20.5t34 51.5q0 37 -46 59q-19 9 -65.5 23t-56.5 18q-12 5 -18 7t-22 9.5t-26 16.5t-22 21t-18 28.5t-6 35.5q0 53 49 90.5t127 37.5q105 0 170 -72z" />
<glyph unicode="t" d="M188 579l79 13q1 -6 0.5 -9t-3 -8.5t-3.5 -9.5l-12 -108h150v-59h-150q-9 -89 -9 -179q0 -66 3 -88q5 -38 26.5 -55.5t50.5 -17.5q46 0 102 41l22 -57q-69 -51 -146 -51q-69 0 -104 49q-12 17 -18.5 41t-7.5 40t-1 43q0 117 10 234h-107l1 59h109z" />
<glyph unicode="u" d="M63 457h72v-255q0 -67 17 -99q9 -17 22.5 -30t30 -19.5t34.5 -6.5q32 0 60.5 19.5t44.5 48.5q18 33 18 90v252h73v-416q0 -25 5 -41h-76q-2 14 -2 35l1 35q-22 -38 -60 -59.5t-81 -21.5q-45 0 -83.5 24.5t-58.5 68.5q-18 41 -18 120z" />
<glyph unicode="v" d="M40 457h86q1 -4 -1 -10.5t-2 -8.5q0 -3 1 -6l132 -334l74 170q47 110 62 189h65q-19 -83 -69 -200l-111 -260h-56z" />
<glyph unicode="w" d="M16 457h73q2 -7 -2 -19q-3 -9 -1 -19l67 -329l78 324h44l97 -323q28 188 36 255t6 111h67q-30 -231 -76 -458h-68l-84 296l-80 -296h-65z" />
<glyph unicode="x" d="M362 457h74l-148 -222l168 -235h-82l-126 178l-119 -178h-82l161 232l-158 225h79l119 -169z" />
<glyph unicode="y" d="M46 457h89q1 -5 -1.5 -12t-2.5 -10t2 -8l134 -336l87 245q25 71 34 121h75q-16 -53 -45 -132l-143 -377q-18 -49 -39 -72q-44 -50 -115 -50q-59 0 -99 39l38 64q3 -3 5 -9.5t3 -6.5q2 -4 7 -9.5t18 -12t28 -6.5q36 0 64 30q16 17 32 53l14 34z" />
<glyph unicode="z" d="M71 457h355v-49l-278 -347h271q7 0 15.5 3.5t15.5 2.5v-68h-400v49l283 346h-262v63z" />
<glyph unicode="{" d="M53 284h19q46 0 67 22q26 28 26 85q0 12 -1 35.5t-1 36.5q0 89 49 134q7 6 15 11.5t15 9.5t17 7t16 5t18 3.5t17 2t18 1t16.5 0.5h17.5h16h30v-57h-34h-21h-19.5t-16.5 -0.5t-16.5 -1.5t-14 -4t-13.5 -7q-40 -25 -40 -93q0 -12 1 -35t1 -35q0 -48 -15 -80 q-23 -47 -72 -68q85 -29 85 -155q0 -16 -1.5 -43.5t-1.5 -40.5q0 -75 41 -103q4 -3 8 -5l8 -4t9.5 -3t9 -2t10 -1.5t10 -0.5t10.5 -0.5t10.5 -0.5h12h11.5h37v-56h-36h-18h-18t-16.5 0.5t-17 1t-15 1.5t-16 2.5t-14.5 3.5t-14.5 5t-13 7t-13.5 9q-56 43 -56 145q0 21 2 53.5 t2 46.5q0 66 -26 92q-21 20 -64 20h-20v56z" />
<glyph unicode="|" d="M217 652h67v-803h-67v803z" />
<glyph unicode="}" d="M448 284v-56h-21q-43 0 -63 -20q-26 -26 -26 -92q0 -14 1.5 -46.5t1.5 -53.5q0 -102 -55 -145q-19 -14 -44.5 -21t-43.5 -8t-54 -1h-15h-36v56h37h13.5h13t11.5 0.5t12 1t10.5 1t10.5 2t9.5 3t10 4t9.5 5.5q41 28 41 103q0 13 -1.5 40.5t-1.5 43.5q0 126 84 155 q-48 21 -71 68q-16 32 -16 80q0 12 1.5 35t1.5 35q0 68 -40 93q-8 5 -16 8t-19.5 4t-18 1.5t-23.5 0t-24 -0.5h-35v57h31h16h17.5t16.5 -0.5t18 -1t16.5 -2t17.5 -3.5t16 -5t17 -7t15 -9.5t15 -11.5q50 -45 50 -134q0 -13 -1.5 -36.5t-1.5 -35.5q0 -57 26 -85q22 -22 67 -22 h20z" />
<glyph unicode="~" d="M91 342l-50 33q24 39 60.5 64t77.5 25q28 0 52.5 -11.5t39.5 -25.5t35 -26t39 -12q22 0 41 16t44 49l46 -38q-25 -37 -61 -64.5t-78 -27.5q-27 0 -51 12.5t-38 27.5t-33.5 27.5t-40.5 12.5q-45 0 -83 -62z" />
<glyph unicode="&#xa0;" />
<glyph unicode="&#xa1;" d="M180 608.5q0 24.5 17.5 42t41.5 17.5q17 0 30.5 -8t21.5 -21.5t8 -29.5q0 -25 -17.5 -42t-42 -17t-42 17t-17.5 41.5zM238 -11q-16 0 -29 10.5t-19 32.5q-3 15 -3 40q0 22 4 62.5t5 51.5l18 277h50l15 -277q1 -33 5.5 -69.5t4.5 -52.5q0 -27 -7 -43q-14 -32 -44 -32z" />
<glyph unicode="&#xa2;" d="M285 624l67 -7q1 -6 -3.5 -13.5t-5.5 -14.5l-10 -82q78 -15 118 -77l-44 -57q-4 3 -4 10q0 12 -4 16q-28 34 -74 48l-46 -350q76 0 131 56l36 -49q-65 -71 -168 -71h-8l-15 -112l-57 7l14 113q-75 21 -119.5 83.5t-44.5 148.5q0 101 61.5 167.5t161.5 71.5zM220 108 l43 346q-41 -3 -73.5 -23.5t-51.5 -59t-19 -89.5q0 -64 27.5 -110t73.5 -64z" />
<glyph unicode="&#xa3;" d="M418 572l-44 -55q-4 3 -6 6.5t-3.5 7.5t-4.5 6q-1 2 -5 5t-11 7.5t-15 8t-19.5 6t-23.5 2.5q-44 0 -75.5 -32t-31.5 -91q0 -27 8 -65h100v-57h-86q13 -58 13 -97q0 -75 -36 -134q13 2 27 2q34 0 85.5 -20.5t79.5 -20.5q41 0 74 28l26 -52q-52 -42 -104 -42 q-31 0 -86 22.5t-92 22.5q-52 0 -123 -38l-26 57q29 13 38 18t18.5 13t17.5 20q35 54 35 122q0 37 -15 99h-66v57h52q-7 36 -7 64q0 81 51.5 131t124.5 50q74 0 130 -51z" />
<glyph unicode="&#xa4;" d="M68 492l36 35l56 -56q41 29 91 29q49 0 89 -28l56 55l36 -35l-56 -55q30 -41 30 -92q0 -50 -29 -91l55 -55l-36 -35l-55 55q-40 -29 -90 -29q-51 0 -92 30l-55 -56l-36 35l56 57q-28 40 -28 89q0 50 29 90zM250.5 446q-41.5 0 -71 -29.5t-29.5 -71t29.5 -71t71 -29.5 t71 29.5t29.5 71t-29.5 71t-71 29.5z" />
<glyph unicode="&#xa5;" d="M36 624h78l145 -261l133 260h74l-174 -328v-21h134v-57h-134v-63h134v-56h-134v-98h-68v98h-140v56h140v63h-140v57h140v21z" />
<glyph unicode="&#xa6;" d="M217 652h67v-357h-67v357zM284 -151h-67v347h67v-347z" />
<glyph unicode="&#xa7;" d="M413 583l-57 -50q-3 3 -4.5 6.5t-2 8t-0.5 6.5q-5 13 -15.5 25.5t-31 23t-45.5 10.5q-38 0 -64 -22.5t-26 -54.5q0 -47 53 -75q14 -7 50 -20t56 -22q92 -44 92 -114q0 -30 -20.5 -56.5t-53.5 -39.5q64 -44 64 -116q0 -61 -48 -104t-122 -43q-50 0 -96 22t-77 63l52 61 q4 -1 5.5 -4t2 -7.5t1.5 -5.5q2 -5 8.5 -13.5t19.5 -20.5t35.5 -20.5t48.5 -8.5q45 0 72 23t27 56q0 43 -46 71q-20 11 -71 26.5t-77 30.5q-64 38 -64 97q0 22 10.5 42t29 35t42.5 24q-67 41 -67 113q0 58 47 100t116 42q25 0 48 -6.5t43 -18t36.5 -27.5t28.5 -37zM197 399 q-20 -7 -32.5 -24t-12.5 -39q0 -47 54 -74q13 -6 30 -11.5t36.5 -11t34.5 -11.5q36 19 36 60q0 50 -58 79q-14 7 -45 17t-43 15z" />
<glyph unicode="&#xa8;" d="M213 614q0 -14 -6.5 -25.5t-18.5 -18t-25.5 -6.5t-25 6.5t-18.5 18t-7 25.5q0 21 15 36t36 15q13 0 25 -7t18.5 -18.5t6.5 -25.5zM391 614q0 -10 -4 -19.5t-10.5 -16t-16 -10.5t-19.5 -4q-21 0 -35.5 14.5t-14.5 35.5t14.5 36t35.5 15t35.5 -15t14.5 -36z" />
<glyph unicode="&#xa9;" d="M262 424q46 0 80.5 -26t44.5 -67l-52 -19q-3 4 -3.5 11.5t-0.5 8.5q-2 6 -7 14.5t-21.5 18t-38.5 9.5q-38 0 -65.5 -24t-27.5 -68q0 -45 27.5 -76.5t66.5 -31.5q16 0 30.5 5.5t26 16t18.5 23.5l44 -29q-21 -32 -54 -50t-69 -18q-61 0 -103.5 45.5t-42.5 108.5t43 105.5 t104 42.5zM255.5 19q-99.5 0 -170.5 74.5t-71 180.5q0 107 71 181.5t171 74.5t171 -74.5t71 -180.5q0 -107 -71.5 -181.5t-171 -74.5zM59 274q0 -58 27 -107t72.5 -77t98.5 -28q81 0 139.5 62t58.5 151t-58 151t-140 62q-53 0 -98.5 -28t-72.5 -77.5t-27 -108.5z" />
<glyph unicode="&#xaa;" d="M123 566q49 56 134 56q27 0 50.5 -7t42 -22t28.5 -36q11 -25 11 -72v-218h-63v33q-46 -43 -106 -43q-51 0 -84.5 31t-33.5 74q0 26 15 51t44 41q8 4 15.5 7t16.5 5.5t15.5 4t17.5 2.5l16.5 1.5t18 0.5t16 0.5t17.5 0.5h17h14v12q0 34 -11 51q-19 30 -63 30q-62 0 -94 -44 zM328 424h-16q-70 0 -86 -3q-31 -5 -45.5 -21.5t-14.5 -35.5q0 -21 17.5 -37t45.5 -16q43 0 77 32q14 13 18 27t4 36v18zM76 206h349v-54h-349v54z" />
<glyph unicode="&#xab;" d="M249 253l151 147l39 -41l-121 -118l128 -140l-40 -40l-157 169v23zM67 253l152 147l39 -41l-121 -118l128 -140l-40 -40l-158 169v23z" />
<glyph unicode="&#xac;" d="M91 347h323v-190h-64v127h-259v63z" />
<glyph unicode="&#xad;" d="M71 348h360v-67h-360v67z" />
<glyph unicode="&#xae;" d="M255.5 19q-99.5 0 -170.5 74.5t-71 180.5q0 107 71 181.5t171 74.5t171 -74.5t71 -180.5q0 -107 -71.5 -181.5t-171 -74.5zM59 274q0 -58 27 -107t72.5 -77t98.5 -28q81 0 139.5 62t58.5 151t-58 151t-140 62q-53 0 -98.5 -28t-72.5 -77.5t-27 -108.5zM155 133v292h94 q46 0 69 -10q17 -7 28.5 -19t17.5 -26.5t6 -29.5q0 -18 -7.5 -33.5t-20.5 -27t-30 -16.5l64 -125l-47 -7l-62 125h-66v-123h-46zM201 384v-88h52q36 0 52 10q19 12 19 34q0 23 -22 35q-16 9 -52 9h-49z" />
<glyph unicode="&#xaf;" d="M123 621h254v-56h-254v56z" />
<glyph unicode="&#xb0;" d="M391 504.5q0 -55.5 -39.5 -95t-95.5 -39.5t-95.5 39.5t-39.5 95t39.5 95t95.5 39.5t95.5 -39.5t39.5 -95zM257 586q-31 0 -53 -23.5t-22 -57t22 -57t53 -23.5q20 0 37 10.5t27 29.5t10 41q0 33 -21.5 56.5t-52.5 23.5z" />
<glyph unicode="&#xb1;" d="M46 80h411v-63h-411v63zM222 575h63v-171h171v-61h-171v-188h-63v188h-177v61h177v171z" />
<glyph unicode="&#xb2;" d="M111 554q23 39 62 61t85 22q29 0 54.5 -9t42.5 -24t27 -35.5t10 -43.5q0 -50 -47 -93q-15 -13 -42.5 -32.5t-55.5 -42t-53 -50.5h182q6 0 11 4q7 7 13 5v-63h-279v44q16 22 34.5 42.5t37.5 37t33.5 28.5t31.5 25t22 17q51 42 51 78q0 16 -8.5 29.5t-26 22.5t-40.5 9 q-27 0 -50.5 -12t-37.5 -30q-3 -4 -5.5 -10.5t-4.5 -10.5z" />
<glyph unicode="&#xb3;" d="M258 638q55 0 93 -32t38 -76q0 -27 -16 -48.5t-41 -29.5q32 -5 53 -29.5t21 -56.5q0 -48 -45.5 -81.5t-105.5 -33.5q-86 0 -143 65l47 52q4 -5 6.5 -14.5t7.5 -13.5q33 -33 83 -33q36 0 62 19t26 46q0 8 -3.5 16.5t-11.5 18t-27 15t-46 5.5q-15 0 -30 -2v51q10 -1 20 -1 q45 0 64 15t19 36q0 23 -21 41t-53 18q-56 0 -94 -46l-36 37q53 62 133 62z" />
<glyph unicode="&#xb4;" d="M292 699l63 -42l-101 -135l-50 30z" />
<glyph unicode="&#xb5;" d="M24 -167q1 55 10.5 179t9.5 190v255h66v-271q0 -57 14 -87q9 -18 22.5 -30.5t28.5 -19t31 -6.5q27 0 51.5 17.5t37.5 47.5t13 84v265h64v-341q0 -34 8 -49q12 -20 32 -20q9 0 18.5 5t15.5 12.5t11 14.5t8 12l2 5l27 -51q-37 -55 -88 -55q-32 0 -55 22.5t-27 54.5 q-9 -17 -22 -32t-29 -25t-34.5 -15.5t-37.5 -5.5q-37 0 -67.5 19t-46.5 52q0 -113 -1 -227h-62z" />
<glyph unicode="&#xb6;" d="M436 665v-733h-58v676h-76v-676h-59v390q-76 5 -127.5 55.5t-51.5 118.5q0 47 27 87t75 61q49 21 145 21h125z" />
<glyph unicode="&#xb7;" d="M298 331q0 -24 -17.5 -40.5t-41.5 -16.5q-17 0 -30.5 7.5t-21.5 20.5t-8 28.5t8 29t21.5 21t30.5 7.5q24 0 41.5 -16.5t17.5 -40.5z" />
<glyph unicode="&#xb8;" d="M261 0h44l-6 -47l17 -1q25 -2 39 -8q29 -14 29 -47q0 -29 -28.5 -51.5t-79.5 -22.5q-66 0 -119 37l25 42q44 -36 99 -36q26 0 36 7.5t10 17.5t-11 17t-36 7h-30z" />
<glyph unicode="&#xb9;" d="M299 633v-380h-64v300l-97 -25l-16 31l133 74h44z" />
<glyph unicode="&#xba;" d="M252 622q59 0 102 -46.5t43 -131.5q0 -90 -45.5 -139t-105.5 -49q-62 0 -106 48.5t-44 127.5q0 84 45.5 137t110.5 53zM156 437q0 -59 27 -91t64 -32q23 0 42.5 12t33.5 41t14 70q0 61 -26.5 95t-63.5 34t-64 -34t-27 -95zM76 206h349v-54h-349v54z" />
<glyph unicode="&#xbb;" d="M265 253v-23l-158 -169l-40 40l128 140l-121 118l39 41zM446 253v-23l-158 -169l-39 40l127 140l-121 118l39 41z" />
<glyph unicode="&#xbc;" d="M76 -16l313 681l48 -27l-314 -680zM396 242h31v-197h50v-37h-50v-78h-46v78h-145v29zM382 164l-94 -119h94v119zM146 677v-303h-51v240l-77 -20l-13 25l107 58h34z" />
<glyph unicode="&#xbd;" d="M76 -16l313 681l48 -27l-314 -680zM263 168q18 31 49.5 49t67.5 18q31 0 56 -12.5t38 -33t13 -44.5q0 -40 -37 -74q-9 -8 -52 -39.5t-69 -60.5h146q4 0 8 3q6 5 11 4v-51h-224v35q16 22 37 43t34 32.5t34 27.5t23 17q41 34 41 63q0 13 -7 24t-21 18t-32 7q-45 0 -71 -34 q-2 -3 -3 -5t-2 -5.5t-3 -6.5zM146 677v-303h-51v240l-77 -20l-13 25l107 58h34z" />
<glyph unicode="&#xbe;" d="M81 -16l313 681l48 -27l-314 -680zM128 684q44 0 74 -25.5t30 -60.5q0 -22 -12.5 -39t-32.5 -24q26 -4 42.5 -23.5t16.5 -44.5q0 -39 -36 -66t-85 -27q-68 0 -114 52l38 42q2 -3 3 -6t1.5 -5.5t2 -5.5t4.5 -6q26 -26 66 -26q29 0 50 15.5t21 36.5q0 7 -3 13.5t-9.5 14 t-21.5 12t-37 4.5q-12 0 -24 -1v40q8 -1 16 -1q25 0 40.5 7t21 15.5t5.5 18.5q0 19 -17 33.5t-43 14.5q-45 0 -74 -38l-29 30q42 50 106 50zM396 242h31v-197h50v-37h-50v-78h-46v78h-145v29zM382 164l-94 -119h94v119z" />
<glyph unicode="&#xbf;" d="M181 608q0 24 17.5 40.5t42 16.5t42 -16.5t17.5 -40.5t-17.5 -40.5t-42 -16.5t-42 16.5t-17.5 40.5zM438 91q-32 -49 -84 -76.5t-109 -27.5q-55 0 -96 25t-61.5 64.5t-20.5 86.5q0 23 5.5 43t12.5 34t19.5 28.5t21 22t22.5 19t18 15.5q28 25 36 47t8 54v42h65v-42 q0 -40 -8 -67.5t-39 -60.5q-3 -4 -19 -20t-23.5 -25.5t-18.5 -25.5t-16 -33t-5 -36q0 -44 30.5 -75t75.5 -31q38 0 74.5 23.5t60.5 63.5z" />
<glyph unicode="&#xc0;" d="M181 791l153 -89l-23 -42l-169 61zM15 -1l220 635h8l240 -634h-72l-69 182h-198l-60 -183h-69zM326 236l-88 238l-80 -238h168z" />
<glyph unicode="&#xc1;" d="M308 791l40 -70l-169 -61l-24 42zM15 -1l220 635h8l240 -634h-72l-69 182h-198l-60 -183h-69zM326 236l-88 238l-80 -238h168z" />
<glyph unicode="&#xc2;" d="M102 692l131 99h22l123 -97l-33 -38l-103 71l-112 -69zM15 -1l220 635h8l240 -634h-72l-69 182h-198l-60 -183h-69zM326 236l-88 238l-80 -238h168z" />
<glyph unicode="&#xc3;" d="M131 683l-45 32q55 87 113 87q39 0 80 -43q31 -32 50 -32q6 0 11.5 2.5t9.5 5t9.5 8.5t8.5 10t9.5 13t9.5 14l38 -40q-30 -36 -52 -53.5t-47 -17.5q-20 0 -39 12t-31.5 26t-28.5 26t-30 12q-19 0 -32 -13.5t-34 -48.5zM15 -1l220 635h8l240 -634h-72l-69 182h-198 l-60 -183h-69zM326 236l-88 238l-80 -238h168z" />
<glyph unicode="&#xc4;" d="M202 738q0 -21 -15 -35.5t-36 -14.5q-13 0 -25 6.5t-18.5 18.5t-6.5 25q0 21 15 36t35 15q14 0 25.5 -7t18.5 -18.5t7 -25.5zM380 738q0 -21 -15 -35.5t-35.5 -14.5t-35 14.5t-14.5 35.5t14.5 36t35 15t35.5 -15t15 -36zM15 -1l220 635h8l240 -634h-72l-69 182h-198 l-60 -183h-69zM326 236l-88 238l-80 -238h168z" />
<glyph unicode="&#xc5;" d="M199 707q0 -19 12.5 -32t29.5 -13t29 13t12 33q0 19 -12 32t-29 13t-29.5 -13t-12.5 -33zM326 236l-88 238l-80 -238h168zM248 619l235 -619h-72l-69 182h-198l-60 -183h-69l215 620q-35 4 -58.5 29t-23.5 59q0 36 27 62t65 26q25 0 46 -12t33 -32t12 -44 q0 -34 -23.5 -59.5t-59.5 -28.5z" />
<glyph unicode="&#xc6;" d="M200 624h284v-62h-173l1 -205h146v-64h-145l2 -231h167v-62h-230v169h-130l-54 -169h-64zM252 562h-11l-105 -335h116v335z" />
<glyph unicode="&#xc7;" d="M278 628q41 0 78.5 -15t66.5 -43t46 -65l-67 -33q-4 3 -4 10v4v3q0 5 -3 11q-20 33 -52 52.5t-68 19.5q-69 0 -117.5 -69.5t-48.5 -188.5q0 -121 50 -192.5t122 -71.5q37 0 71.5 20.5t55.5 55.5l52 -34q-26 -42 -67 -68.5t-89 -32.5l-5 -38l17 -1q25 -2 39 -8 q29 -14 29 -47q0 -29 -28.5 -51.5t-79.5 -22.5q-66 0 -119 37l25 42q44 -36 99 -36q26 0 36 7.5t10 17.5t-11 17t-36 7h-30l10 75q-40 4 -76.5 22.5t-70 54t-53 97.5t-19.5 144q0 72 15.5 129t39.5 92t56.5 58t63 32t62.5 9z" />
<glyph unicode="&#xc8;" d="M181 791l153 -89l-23 -42l-169 61zM59 624h382v-62h-316v-205h261v-64h-261v-231h313v-62h-379v624z" />
<glyph unicode="&#xc9;" d="M325 791l40 -70l-169 -61l-23 42zM59 624h382v-62h-316v-205h261v-64h-261v-231h313v-62h-379v624z" />
<glyph unicode="&#xca;" d="M110 692l132 99h21l124 -97l-33 -38l-104 71l-111 -69zM59 624h382v-62h-316v-205h261v-64h-261v-231h313v-62h-379v624z" />
<glyph unicode="&#xcb;" d="M209 738q0 -21 -15 -35.5t-36 -14.5q-13 0 -25 6.5t-18.5 18.5t-6.5 25q0 21 14.5 36t35.5 15q14 0 25.5 -7t18.5 -18.5t7 -25.5zM387 738q0 -21 -15 -35.5t-35.5 -14.5t-35 14.5t-14.5 35.5t14.5 36t35 15t35.5 -15t15 -36zM59 624h382v-62h-316v-205h261v-64h-261v-231 h313v-62h-379v624z" />
<glyph unicode="&#xcc;" d="M181 791l153 -89l-23 -42l-169 61zM88 623h309v-59h-123v-507h129v-58h-322v59h123v506h-116v59z" />
<glyph unicode="&#xcd;" d="M325 791l40 -70l-169 -61l-23 42zM88 623h309v-59h-123v-507h129v-58h-322v59h123v506h-116v59z" />
<glyph unicode="&#xce;" d="M101 692l131 99h22l123 -97l-33 -38l-103 71l-112 -69zM88 623h309v-59h-123v-507h129v-58h-322v59h123v506h-116v59z" />
<glyph unicode="&#xcf;" d="M205 738q0 -21 -14.5 -35.5t-35.5 -14.5q-14 0 -25.5 6.5t-18.5 18.5t-7 25q0 21 15 36t36 15q14 0 25.5 -7t18 -18.5t6.5 -25.5zM383 738q0 -21 -14.5 -35.5t-35.5 -14.5t-35.5 14.5t-14.5 35.5t14.5 36t35.5 15t35.5 -15t14.5 -36zM88 623h309v-59h-123v-507h129v-58 h-322v59h123v506h-116v59z" />
<glyph unicode="&#xd0;" d="M79 623h139q23 0 39.5 -1.5t34.5 -5t34.5 -11t32.5 -19.5q54 -40 80.5 -113t26.5 -158q0 -103 -38.5 -183.5t-108.5 -113.5q-41 -19 -113 -19h-127v302h-49v58h49v264zM143 301v-244h60q66 0 104 26q44 30 68 89t24 134q0 126 -53 198q-19 27 -45.5 41.5t-43.5 16.5 t-43 2h-71v-205h105v-58h-105z" />
<glyph unicode="&#xd1;" d="M135 683l-44 32q54 87 113 87q39 0 80 -43q30 -32 50 -32q6 0 11.5 2.5t9.5 5t9 8.5t8 10t9.5 13t10.5 14l37 -40q-30 -36 -51.5 -53.5t-47.5 -17.5q-19 0 -38 12t-31.5 26t-29 26t-30.5 12q-18 0 -31 -13.5t-35 -48.5zM50 0v623h68l262 -462v463h74q1 -6 -3 -13t-4 -14 v-598h-55l-275 491v-490h-67z" />
<glyph unicode="&#xd2;" d="M181 791l153 -89l-23 -42l-169 61zM471 310q0 -124 -37 -199q-20 -40 -50 -68t-62.5 -40.5t-67.5 -12.5q-30 0 -60 10t-60 34t-53 59.5t-37.5 92t-14.5 127.5q0 59 10 108t27.5 83t39.5 59t48 39.5t50.5 21t49.5 6.5q53 0 101.5 -30t77.5 -87q38 -75 38 -203zM251 564 q-27 0 -52 -12t-48.5 -38.5t-38 -76t-14.5 -115.5q0 -71 14.5 -124.5t38 -82.5t49.5 -42.5t54 -13.5q35 0 67 20.5t52 63.5q28 59 28 158q0 105 -24 165q-20 50 -54.5 74t-71.5 24z" />
<glyph unicode="&#xd3;" d="M325 791l40 -70l-169 -61l-23 42zM471 310q0 -124 -37 -199q-20 -40 -50 -68t-62.5 -40.5t-67.5 -12.5q-30 0 -60 10t-60 34t-53 59.5t-37.5 92t-14.5 127.5q0 59 10 108t27.5 83t39.5 59t48 39.5t50.5 21t49.5 6.5q53 0 101.5 -30t77.5 -87q38 -75 38 -203zM251 564 q-27 0 -52 -12t-48.5 -38.5t-38 -76t-14.5 -115.5q0 -71 14.5 -124.5t38 -82.5t49.5 -42.5t54 -13.5q35 0 67 20.5t52 63.5q28 59 28 158q0 105 -24 165q-20 50 -54.5 74t-71.5 24z" />
<glyph unicode="&#xd4;" d="M113 692l131 99h22l123 -97l-33 -38l-103 71l-111 -69zM471 310q0 -124 -37 -199q-20 -40 -50 -68t-62.5 -40.5t-67.5 -12.5q-30 0 -60 10t-60 34t-53 59.5t-37.5 92t-14.5 127.5q0 59 10 108t27.5 83t39.5 59t48 39.5t50.5 21t49.5 6.5q53 0 101.5 -30t77.5 -87 q38 -75 38 -203zM251 564q-27 0 -52 -12t-48.5 -38.5t-38 -76t-14.5 -115.5q0 -71 14.5 -124.5t38 -82.5t49.5 -42.5t54 -13.5q35 0 67 20.5t52 63.5q28 59 28 158q0 105 -24 165q-20 50 -54.5 74t-71.5 24z" />
<glyph unicode="&#xd5;" d="M135 683l-44 32q54 87 113 87q39 0 80 -43q30 -32 50 -32q6 0 11.5 2.5t9.5 5t9 8.5t8 10t9.5 13t10.5 14l37 -40q-30 -36 -51.5 -53.5t-47.5 -17.5q-19 0 -38 12t-31.5 26t-29 26t-30.5 12q-18 0 -31 -13.5t-35 -48.5zM471 310q0 -124 -37 -199q-20 -40 -50 -68 t-62.5 -40.5t-67.5 -12.5q-30 0 -60 10t-60 34t-53 59.5t-37.5 92t-14.5 127.5q0 59 10 108t27.5 83t39.5 59t48 39.5t50.5 21t49.5 6.5q53 0 101.5 -30t77.5 -87q38 -75 38 -203zM251 564q-27 0 -52 -12t-48.5 -38.5t-38 -76t-14.5 -115.5q0 -71 14.5 -124.5t38 -82.5 t49.5 -42.5t54 -13.5q35 0 67 20.5t52 63.5q28 59 28 158q0 105 -24 165q-20 50 -54.5 74t-71.5 24z" />
<glyph unicode="&#xd6;" d="M209 738q0 -21 -15 -35.5t-36 -14.5q-13 0 -25 6.5t-18.5 18.5t-6.5 25q0 21 14.5 36t35.5 15q14 0 25.5 -7t18.5 -18.5t7 -25.5zM387 738q0 -21 -15 -35.5t-35.5 -14.5t-35 14.5t-14.5 35.5t14.5 36t35 15t35.5 -15t15 -36zM471 310q0 -124 -37 -199q-20 -40 -50 -68 t-62.5 -40.5t-67.5 -12.5q-30 0 -60 10t-60 34t-53 59.5t-37.5 92t-14.5 127.5q0 59 10 108t27.5 83t39.5 59t48 39.5t50.5 21t49.5 6.5q53 0 101.5 -30t77.5 -87q38 -75 38 -203zM251 564q-27 0 -52 -12t-48.5 -38.5t-38 -76t-14.5 -115.5q0 -71 14.5 -124.5t38 -82.5 t49.5 -42.5t54 -13.5q35 0 67 20.5t52 63.5q28 59 28 158q0 105 -24 165q-20 50 -54.5 74t-71.5 24z" />
<glyph unicode="&#xd7;" d="M382 503l48 -44l-130 -134l127 -134l-46 -46l-127 133l-125 -129l-44 44l126 131l-126 133l47 46l124 -131z" />
<glyph unicode="&#xd8;" d="M251 564q-27 0 -52 -12t-48.5 -38.5t-38 -76t-14.5 -115.5q0 -110 34 -177l204 383q-37 36 -85 36zM471 310q0 -124 -37 -199q-20 -40 -50 -68t-62.5 -40.5t-67.5 -12.5q-63 0 -116 40l-50 -93l-52 27l59 110q-66 86 -66 239q0 59 10 108t27.5 83t39.5 59t48 39.5 t50.5 21t49.5 6.5q63 0 115 -40l46 87l54 -29l-56 -103q11 -15 20 -32q38 -75 38 -203zM374 472l-203 -380q37 -33 83 -33q35 0 67 20.5t52 63.5q28 59 28 158q0 105 -24 165z" />
<glyph unicode="&#xd9;" d="M181 791l153 -89l-23 -42l-169 61zM50 623h79q1 -2 1 -5q0 -4 -7 -14q-4 -5 -4 -13v-377q0 -60 15 -92q16 -35 48.5 -54.5t70.5 -19.5q37 0 69.5 19t48.5 54q16 33 16 96v406h67v-405q0 -42 -4.5 -72.5t-20.5 -59.5q-26 -47 -73.5 -72t-103.5 -25q-57 0 -104.5 25 t-73.5 72q-15 28 -19.5 57.5t-4.5 71.5v408z" />
<glyph unicode="&#xda;" d="M325 791l40 -70l-169 -61l-23 42zM50 623h79q1 -2 1 -5q0 -4 -7 -14q-4 -5 -4 -13v-377q0 -60 15 -92q16 -35 48.5 -54.5t70.5 -19.5q37 0 69.5 19t48.5 54q16 33 16 96v406h67v-405q0 -42 -4.5 -72.5t-20.5 -59.5q-26 -47 -73.5 -72t-103.5 -25q-57 0 -104.5 25 t-73.5 72q-15 28 -19.5 57.5t-4.5 71.5v408z" />
<glyph unicode="&#xdb;" d="M113 692l131 99h22l123 -97l-33 -38l-103 71l-111 -69zM50 623h79q1 -2 1 -5q0 -4 -7 -14q-4 -5 -4 -13v-377q0 -60 15 -92q16 -35 48.5 -54.5t70.5 -19.5q37 0 69.5 19t48.5 54q16 33 16 96v406h67v-405q0 -42 -4.5 -72.5t-20.5 -59.5q-26 -47 -73.5 -72t-103.5 -25 q-57 0 -104.5 25t-73.5 72q-15 28 -19.5 57.5t-4.5 71.5v408z" />
<glyph unicode="&#xdc;" d="M217 738q0 -21 -14.5 -35.5t-35.5 -14.5t-36 14.5t-15 35.5t15 36t36 15t35.5 -15t14.5 -36zM395 738q0 -21 -14.5 -35.5t-35 -14.5t-35.5 14.5t-15 35.5t15 36t35.5 15t35 -15t14.5 -36zM50 623h79q1 -2 1 -5q0 -4 -7 -14q-4 -5 -4 -13v-377q0 -60 15 -92 q16 -35 48.5 -54.5t70.5 -19.5q37 0 69.5 19t48.5 54q16 33 16 96v406h67v-405q0 -42 -4.5 -72.5t-20.5 -59.5q-26 -47 -73.5 -72t-103.5 -25q-57 0 -104.5 25t-73.5 72q-15 28 -19.5 57.5t-4.5 71.5v408z" />
<glyph unicode="&#xdd;" d="M325 791l40 -70l-169 -61l-23 42zM28 624h80l153 -303l138 302h74l-177 -377v-246h-76v246z" />
<glyph unicode="&#xde;" d="M59 623h78q1 -2 1 -4q0 -4 -6 -13q-3 -4 -3 -11v-89h120q76 0 117 -21q43 -23 66.5 -64.5t23.5 -90t-23 -89.5t-65 -63q-40 -20 -114 -20h-125v-158h-70v623zM129 440v-221h127q47 0 73 13t40.5 39t14.5 56q0 32 -15.5 59t-43.5 41q-27 13 -76 13h-120z" />
<glyph unicode="&#xdf;" d="M55 0v423q0 90 21 138q23 51 67 79.5t96 28.5q75 0 128 -52.5t53 -123.5q0 -43 -21 -79t-58 -55q56 -17 89.5 -66.5t33.5 -111.5q0 -82 -53 -136.5t-130 -54.5q-57 0 -104 31l35 56q30 -24 68 -24q31 0 58.5 17t43.5 46t16 65q0 38 -18.5 71t-47.5 51q-32 20 -88 20h-30 v57h29q28 0 45 8q29 12 46.5 41.5t17.5 65.5q0 24 -8.5 45.5t-23.5 37t-35 24.5t-42 9q-56 0 -90 -50q-14 -19 -20.5 -45t-8 -44t-1.5 -47v-425h-68z" />
<glyph unicode="&#xe0;" d="M243 699l88 -147l-50 -30l-101 135zM91 403q61 64 163 64q54 0 95 -19.5t64 -56.5q22 -37 22 -108v-283h-68v50q-75 -61 -164 -61q-69 0 -111.5 38t-42.5 91q0 40 26.5 76t78.5 55q27 10 65 14.5t61 5t71 0.5h15v17q0 54 -15 78q-27 44 -94 44q-82 0 -131 -51zM369 214 h-17q-5 0 -35.5 0.5t-43.5 0t-34.5 -2t-36.5 -5.5q-40 -10 -60.5 -33.5t-20.5 -50.5q0 -32 26.5 -55.5t69.5 -23.5q40 0 71 17t49 37q15 15 22 32t8.5 27.5t1.5 26.5v30z" />
<glyph unicode="&#xe1;" d="M292 699l63 -42l-101 -135l-50 30zM91 403q61 64 163 64q54 0 95 -19.5t64 -56.5q22 -37 22 -108v-283h-68v50q-75 -61 -164 -61q-69 0 -111.5 38t-42.5 91q0 40 26.5 76t78.5 55q27 10 65 14.5t61 5t71 0.5h15v17q0 54 -15 78q-27 44 -94 44q-82 0 -131 -51zM369 214 h-17q-5 0 -35.5 0.5t-43.5 0t-34.5 -2t-36.5 -5.5q-40 -10 -60.5 -33.5t-20.5 -50.5q0 -32 26.5 -55.5t69.5 -23.5q40 0 71 17t49 37q15 15 22 32t8.5 27.5t1.5 26.5v30z" />
<glyph unicode="&#xe2;" d="M141 545l111 140h22l110 -141l-47 -35l-77 103l-81 -102zM91 403q61 64 163 64q54 0 95 -19.5t64 -56.5q22 -37 22 -108v-283h-68v50q-75 -61 -164 -61q-69 0 -111.5 38t-42.5 91q0 40 26.5 76t78.5 55q27 10 65 14.5t61 5t71 0.5h15v17q0 54 -15 78q-27 44 -94 44 q-82 0 -131 -51zM369 214h-17q-5 0 -35.5 0.5t-43.5 0t-34.5 -2t-36.5 -5.5q-40 -10 -60.5 -33.5t-20.5 -50.5q0 -32 26.5 -55.5t69.5 -23.5q40 0 71 17t49 37q15 15 22 32t8.5 27.5t1.5 26.5v30z" />
<glyph unicode="&#xe3;" d="M145 557l-45 32q55 87 113 87q39 0 80 -43q31 -32 50 -32q7 0 13 2.5t12.5 9t9.5 10t11.5 15.5t11.5 16l37 -40q-29 -36 -51 -53.5t-47 -17.5q-20 0 -39 12t-31.5 26t-28.5 26t-31 12q-18 0 -31 -13.5t-34 -48.5zM91 403q61 64 163 64q54 0 95 -19.5t64 -56.5 q22 -37 22 -108v-283h-68v50q-75 -61 -164 -61q-69 0 -111.5 38t-42.5 91q0 40 26.5 76t78.5 55q27 10 65 14.5t61 5t71 0.5h15v17q0 54 -15 78q-27 44 -94 44q-82 0 -131 -51zM369 214h-17q-5 0 -35.5 0.5t-43.5 0t-34.5 -2t-36.5 -5.5q-40 -10 -60.5 -33.5t-20.5 -50.5 q0 -32 26.5 -55.5t69.5 -23.5q40 0 71 17t49 37q15 15 22 32t8.5 27.5t1.5 26.5v30z" />
<glyph unicode="&#xe4;" d="M226 614q0 -14 -6.5 -25.5t-18.5 -18t-25 -6.5q-21 0 -36 14.5t-15 35.5t15 36t36 15q13 0 25 -7t18.5 -18.5t6.5 -25.5zM404 614q0 -10 -4 -19.5t-10.5 -16t-16 -10.5t-19.5 -4q-21 0 -35.5 14.5t-14.5 35.5t14.5 36t35.5 15t35.5 -15t14.5 -36zM91 403q61 64 163 64 q54 0 95 -19.5t64 -56.5q22 -37 22 -108v-283h-68v50q-75 -61 -164 -61q-69 0 -111.5 38t-42.5 91q0 40 26.5 76t78.5 55q27 10 65 14.5t61 5t71 0.5h15v17q0 54 -15 78q-27 44 -94 44q-82 0 -131 -51zM369 214h-17q-5 0 -35.5 0.5t-43.5 0t-34.5 -2t-36.5 -5.5 q-40 -10 -60.5 -33.5t-20.5 -50.5q0 -32 26.5 -55.5t69.5 -23.5q40 0 71 17t49 37q15 15 22 32t8.5 27.5t1.5 26.5v30z" />
<glyph unicode="&#xe5;" d="M348 605q0 -36 -27 -62t-65 -26q-25 0 -46 12t-33 32t-12 44q0 36 26.5 62t64.5 26t65 -26t27 -62zM216 606q0 -19 12 -32.5t29 -13.5t29.5 13.5t12.5 32.5t-12.5 32.5t-29.5 13.5t-29 -13.5t-12 -32.5zM91 403q61 64 163 64q54 0 95 -19.5t64 -56.5q22 -37 22 -108v-283 h-68v50q-75 -61 -164 -61q-69 0 -111.5 38t-42.5 91q0 40 26.5 76t78.5 55q27 10 65 14.5t61 5t71 0.5h15v17q0 54 -15 78q-27 44 -94 44q-82 0 -131 -51zM369 214h-17q-5 0 -35.5 0.5t-43.5 0t-34.5 -2t-36.5 -5.5q-40 -10 -60.5 -33.5t-20.5 -50.5q0 -32 26.5 -55.5 t69.5 -23.5q40 0 71 17t49 37q15 15 22 32t8.5 27.5t1.5 26.5v30z" />
<glyph unicode="&#xe6;" d="M31 412q44 55 116 55q36 0 65.5 -16.5t45.5 -45.5q17 29 45.5 45.5t59.5 16.5q29 0 56 -14.5t45 -43.5q12 -21 18.5 -48t7 -44t0.5 -49v-38l-208 -8v-47q0 -42 11 -66q12 -28 37.5 -45t55.5 -17q46 0 73 37l35 -42q-44 -53 -114 -53q-38 0 -71.5 18.5t-53.5 50.5 q-11 -21 -28.5 -37t-39.5 -24t-45 -8q-54 0 -93 39.5t-39 95.5q0 41 23.5 77.5t68.5 57.5q37 17 96 19l23 1v26q0 33 -7 51q-9 25 -28.5 40t-43.5 15q-45 0 -76 -43zM221 219l-22 -1q-52 -2 -77 -14q-16 -8 -27 -21t-16 -27t-5 -28q0 -33 22 -55.5t53 -22.5q21 0 39 12 t27 34q2 7 3.5 14.5t2 17t0.5 15.5v19v19v38zM282 279l150 6v20q0 40 -9 62q-9 20 -25 32t-36 12q-36 0 -61 -38q-19 -28 -19 -77v-17z" />
<glyph unicode="&#xe7;" d="M457 381l-51 -59q-5 3 -5 11.5t-1.5 11.5t-6 8.5t-14.5 15t-23 17t-33 13.5t-42 6q-64 0 -107.5 -46.5t-43.5 -122.5q0 -80 45 -131t112 -51q72 0 121 56l42 -49q-59 -63 -146 -71l-5 -37l17 -1q25 -2 39 -8q29 -14 29 -47q0 -29 -28.5 -51.5t-79.5 -22.5q-66 0 -119 37 l25 42q44 -36 99 -36q26 0 36 7.5t10 17.5t-11 17t-36 7h-30l10 75q-89 8 -146.5 74.5t-57.5 163.5q0 103 64.5 170.5t165.5 67.5q54 0 98.5 -22.5t72.5 -62.5z" />
<glyph unicode="&#xe8;" d="M243 699l88 -147l-50 -30l-101 135zM259 468q29 0 56.5 -8.5t53.5 -26.5t44.5 -50.5t26.5 -76.5q7 -43 3 -88h-325q2 -48 18 -83.5t40 -53t48 -25.5t50 -8q72 0 118 51l40 -39q-59 -70 -164 -70q-97 0 -158 61.5t-61 171.5q0 119 60.5 182t149.5 63zM121 274h251 q6 56 -28.5 97.5t-89.5 41.5q-20 0 -40 -7t-39.5 -22t-34 -43.5t-19.5 -66.5z" />
<glyph unicode="&#xe9;" d="M292 699l63 -42l-101 -135l-50 30zM259 468q29 0 56.5 -8.5t53.5 -26.5t44.5 -50.5t26.5 -76.5q7 -43 3 -88h-325q2 -48 18 -83.5t40 -53t48 -25.5t50 -8q72 0 118 51l40 -39q-59 -70 -164 -70q-97 0 -158 61.5t-61 171.5q0 119 60.5 182t149.5 63zM121 274h251 q6 56 -28.5 97.5t-89.5 41.5q-20 0 -40 -7t-39.5 -22t-34 -43.5t-19.5 -66.5z" />
<glyph unicode="&#xea;" d="M134 545l111 140h22l110 -141l-46 -35l-78 103l-81 -102zM259 468q29 0 56.5 -8.5t53.5 -26.5t44.5 -50.5t26.5 -76.5q7 -43 3 -88h-325q2 -48 18 -83.5t40 -53t48 -25.5t50 -8q72 0 118 51l40 -39q-59 -70 -164 -70q-97 0 -158 61.5t-61 171.5q0 119 60.5 182t149.5 63z M121 274h251q6 56 -28.5 97.5t-89.5 41.5q-20 0 -40 -7t-39.5 -22t-34 -43.5t-19.5 -66.5z" />
<glyph unicode="&#xeb;" d="M215 614q0 -14 -7 -25.5t-18.5 -18t-25.5 -6.5q-20 0 -35 14.5t-15 35.5t15 36t35 15q14 0 25.5 -7t18.5 -18.5t7 -25.5zM393 614q0 -10 -4 -19.5t-11 -16t-16 -10.5t-19 -4q-21 0 -35.5 14.5t-14.5 35.5t14.5 36t35 15t35.5 -15t15 -36zM259 468q29 0 56.5 -8.5 t53.5 -26.5t44.5 -50.5t26.5 -76.5q7 -43 3 -88h-325q2 -48 18 -83.5t40 -53t48 -25.5t50 -8q72 0 118 51l40 -39q-59 -70 -164 -70q-97 0 -158 61.5t-61 171.5q0 119 60.5 182t149.5 63zM121 274h251q6 56 -28.5 97.5t-89.5 41.5q-20 0 -40 -7t-39.5 -22t-34 -43.5 t-19.5 -66.5z" />
<glyph unicode="&#xec;" d="M192 699l88 -147l-50 -30l-101 135zM106 457h183v-399h107v-58h-296v58h117v341h-111v58z" />
<glyph unicode="&#xed;" d="M283 699l63 -42l-101 -135l-50 30zM106 457h183v-399h107v-58h-296v58h117v341h-111v58z" />
<glyph unicode="&#xee;" d="M113 545l111 140h22l110 -141l-46 -35l-78 103l-81 -102zM106 457h183v-399h107v-58h-296v58h117v341h-111v58z" />
<glyph unicode="&#xef;" d="M203 614q0 -14 -7 -25.5t-18.5 -18t-25 -6.5t-25.5 6.5t-18.5 18t-6.5 25.5q0 21 14.5 36t35.5 15q14 0 25.5 -7t18.5 -18.5t7 -25.5zM381 614q0 -10 -4 -19.5t-11 -16t-16 -10.5t-19 -4q-21 0 -36 14.5t-15 35.5t15 36t35.5 15t35.5 -15t15 -36zM106 457h183v-399h107 v-58h-296v58h117v341h-111v58z" />
<glyph unicode="&#xf0;" d="M255 406q-56 0 -97 -45.5t-41 -128.5q0 -56 19.5 -98t51 -63t68.5 -21q22 0 44 9.5t42.5 29t32.5 56.5t12 87q0 49 -13 85t-34 54t-42 26.5t-43 8.5zM347 570q113 -128 113 -317q0 -107 -38 -171q-19 -30 -45 -51.5t-57 -32t-64 -10.5q-58 0 -107 29.5t-79 84t-30 121.5 t29 123.5t77 88.5t103 32q71 0 120 -52q-31 77 -86 137l-128 -36l-18 48l104 28q-47 39 -102 64l81 16q47 -26 87 -62l108 29l17 -44z" />
<glyph unicode="&#xf1;" d="M130 557l-45 32q55 87 114 87q38 0 80 -43q30 -32 50 -32q7 0 12.5 2.5t12 9l10 10t12 15.5t11.5 16l37 -40q-30 -36 -51.5 -53.5t-47.5 -17.5q-19 0 -38 12t-31.5 26t-29 26t-30.5 12q-18 0 -31.5 -13.5t-34.5 -48.5zM68 0v457h74v-81q26 41 66.5 66.5t84.5 25.5 q40 0 72.5 -21.5t49.5 -59.5q17 -37 17 -110v-277h-71v275q0 13 -0.5 20.5t-1.5 20.5t-3.5 22t-7.5 19.5t-12 18.5q-24 29 -62 29q-32 0 -62.5 -20.5t-47.5 -42.5q-22 -31 -22 -79v-263h-74z" />
<glyph unicode="&#xf2;" d="M243 699l88 -147l-50 -30l-101 135zM460 226q0 -109 -60 -173.5t-145 -64.5q-89 0 -152 67.5t-63 169.5q0 104 64 173t153 69q83 0 143 -64t60 -177zM252 406q-56 0 -96 -47.5t-40 -127.5q0 -54 20 -96t51 -63.5t68 -21.5q54 0 93.5 46t39.5 127q0 88 -41 135.5t-95 47.5 z" />
<glyph unicode="&#xf3;" d="M292 699l63 -42l-101 -135l-50 30zM460 226q0 -109 -60 -173.5t-145 -64.5q-89 0 -152 67.5t-63 169.5q0 104 64 173t153 69q83 0 143 -64t60 -177zM252 406q-56 0 -96 -47.5t-40 -127.5q0 -54 20 -96t51 -63.5t68 -21.5q54 0 93.5 46t39.5 127q0 88 -41 135.5t-95 47.5z " />
<glyph unicode="&#xf4;" d="M134 545l111 140h22l110 -141l-46 -35l-78 103l-81 -102zM460 226q0 -109 -60 -173.5t-145 -64.5q-89 0 -152 67.5t-63 169.5q0 104 64 173t153 69q83 0 143 -64t60 -177zM252 406q-56 0 -96 -47.5t-40 -127.5q0 -54 20 -96t51 -63.5t68 -21.5q54 0 93.5 46t39.5 127 q0 88 -41 135.5t-95 47.5z" />
<glyph unicode="&#xf5;" d="M135 557l-44 32q54 87 113 87q39 0 80 -43q30 -32 50 -32q7 0 13 2.5t12 9t9.5 10t12 15.5t11.5 16l37 -40q-30 -36 -51.5 -53.5t-47.5 -17.5q-19 0 -38 12t-31.5 26t-29 26t-30.5 12q-18 0 -31 -13.5t-35 -48.5zM460 226q0 -109 -60 -173.5t-145 -64.5q-89 0 -152 67.5 t-63 169.5q0 104 64 173t153 69q83 0 143 -64t60 -177zM252 406q-56 0 -96 -47.5t-40 -127.5q0 -54 20 -96t51 -63.5t68 -21.5q54 0 93.5 46t39.5 127q0 88 -41 135.5t-95 47.5z" />
<glyph unicode="&#xf6;" d="M213 614q0 -14 -6.5 -25.5t-18.5 -18t-25.5 -6.5t-25 6.5t-18.5 18t-7 25.5q0 21 15 36t36 15q13 0 25 -7t18.5 -18.5t6.5 -25.5zM391 614q0 -10 -4 -19.5t-10.5 -16t-16 -10.5t-19.5 -4q-21 0 -35.5 14.5t-14.5 35.5t14.5 36t35.5 15t35.5 -15t14.5 -36zM460 226 q0 -109 -60 -173.5t-145 -64.5q-89 0 -152 67.5t-63 169.5q0 104 64 173t153 69q83 0 143 -64t60 -177zM252 406q-56 0 -96 -47.5t-40 -127.5q0 -54 20 -96t51 -63.5t68 -21.5q54 0 93.5 46t39.5 127q0 88 -41 135.5t-95 47.5z" />
<glyph unicode="&#xf7;" d="M71 348h360v-67h-360v67zM300 467q0 -19 -13 -32t-31.5 -13t-31.5 13t-13 31.5t13 32t31 13.5q13 0 23 -6t16 -16.5t6 -22.5zM300 158.5q0 -18.5 -13 -31.5t-31.5 -13t-32 13t-13.5 32q0 12 6.5 22.5t16.5 16.5t22 6q19 0 32 -13.5t13 -32z" />
<glyph unicode="&#xf8;" d="M252 406q-56 0 -96 -47.5t-40 -127.5q0 -72 34 -121l154 283q-25 13 -52 13zM460 226q0 -109 -60 -173.5t-145 -64.5q-49 0 -93 22l-40 -74l-52 27l44 81q-74 70 -74 181q0 104 64 173t153 69q41 0 78 -17l37 69l53 -29l-39 -73q74 -67 74 -191zM351 354l-157 -287 q28 -17 61 -17q54 0 93.5 46t39.5 127t-37 131z" />
<glyph unicode="&#xf9;" d="M243 699l88 -147l-50 -30l-101 135zM63 457h72v-255q0 -67 17 -99q9 -17 22.5 -30t30 -19.5t34.5 -6.5q32 0 60.5 19.5t44.5 48.5q18 33 18 90v252h73v-416q0 -25 5 -41h-76q-2 14 -2 35l1 35q-22 -38 -60 -59.5t-81 -21.5q-45 0 -83.5 24.5t-58.5 68.5q-18 41 -18 120z " />
<glyph unicode="&#xfa;" d="M292 699l63 -42l-101 -135l-50 30zM63 457h72v-255q0 -67 17 -99q9 -17 22.5 -30t30 -19.5t34.5 -6.5q32 0 60.5 19.5t44.5 48.5q18 33 18 90v252h73v-416q0 -25 5 -41h-76q-2 14 -2 35l1 35q-22 -38 -60 -59.5t-81 -21.5q-45 0 -83.5 24.5t-58.5 68.5q-18 41 -18 120z " />
<glyph unicode="&#xfb;" d="M134 545l111 140h22l110 -141l-46 -35l-78 103l-81 -102zM63 457h72v-255q0 -67 17 -99q9 -17 22.5 -30t30 -19.5t34.5 -6.5q32 0 60.5 19.5t44.5 48.5q18 33 18 90v252h73v-416q0 -25 5 -41h-76q-2 14 -2 35l1 35q-22 -38 -60 -59.5t-81 -21.5q-45 0 -83.5 24.5 t-58.5 68.5q-18 41 -18 120z" />
<glyph unicode="&#xfc;" d="M213 614q0 -14 -6.5 -25.5t-18.5 -18t-25.5 -6.5t-25 6.5t-18.5 18t-7 25.5q0 21 15 36t36 15q13 0 25 -7t18.5 -18.5t6.5 -25.5zM391 614q0 -10 -4 -19.5t-10.5 -16t-16 -10.5t-19.5 -4q-21 0 -35.5 14.5t-14.5 35.5t14.5 36t35.5 15t35.5 -15t14.5 -36zM63 457h72v-255 q0 -67 17 -99q9 -17 22.5 -30t30 -19.5t34.5 -6.5q32 0 60.5 19.5t44.5 48.5q18 33 18 90v252h73v-416q0 -25 5 -41h-76q-2 14 -2 35l1 35q-22 -38 -60 -59.5t-81 -21.5q-45 0 -83.5 24.5t-58.5 68.5q-18 41 -18 120z" />
<glyph unicode="&#xfd;" d="M292 699l63 -42l-101 -135l-50 30zM46 457h89q1 -5 -1.5 -12t-2.5 -10t2 -8l134 -336l87 245q25 71 34 121h75q-16 -53 -45 -132l-143 -377q-18 -49 -39 -72q-44 -50 -115 -50q-59 0 -99 39l38 64q3 -3 5 -9.5t3 -6.5q2 -4 7 -9.5t18 -12t28 -6.5q36 0 64 30q16 17 32 53 l14 34z" />
<glyph unicode="&#xfe;" d="M60 665h80q0 -7 -3.5 -16t-3.5 -17v-245q23 37 61.5 58.5t82.5 21.5q35 0 67.5 -14t59 -41.5t43 -73.5t16.5 -104q0 -61 -17 -109t-44.5 -77.5t-61 -44.5t-69.5 -15q-42 0 -78 19t-59 53v-227h-74v832zM251 406q-23 0 -44 -8t-37.5 -23t-24.5 -36q-12 -28 -12 -90 q0 -42 0.5 -59.5t3.5 -39t9 -35.5q13 -30 41.5 -46.5t62.5 -16.5q13 0 25.5 2.5t29 8.5t30.5 18.5t26.5 30t19.5 45t7 62.5q0 47 -11 82.5t-26 55t-35 31t-35 15t-30 3.5z" />
<glyph unicode="&#xff;" d="M213 614q0 -14 -6.5 -25.5t-18.5 -18t-25.5 -6.5t-25 6.5t-18.5 18t-7 25.5q0 21 15 36t36 15q13 0 25 -7t18.5 -18.5t6.5 -25.5zM391 614q0 -10 -4 -19.5t-10.5 -16t-16 -10.5t-19.5 -4q-21 0 -35.5 14.5t-14.5 35.5t14.5 36t35.5 15t35.5 -15t14.5 -36zM46 457h89 q1 -5 -1.5 -12t-2.5 -10t2 -8l134 -336l87 245q25 71 34 121h75q-16 -53 -45 -132l-143 -377q-18 -49 -39 -72q-44 -50 -115 -50q-59 0 -99 39l38 64q3 -3 5 -9.5t3 -6.5q2 -4 7 -9.5t18 -12t28 -6.5q36 0 64 30q16 17 32 53l14 34z" />
<glyph unicode="&#x102;" d="M128 784q12 -19 28 -34t38.5 -25.5t45.5 -10.5q65 0 119 70l28 -42q-26 -36 -64.5 -58t-82.5 -22q-40 0 -79.5 20.5t-69.5 56.5zM15 -1l220 635h8l240 -634h-72l-69 182h-198l-60 -183h-69zM326 236l-88 238l-80 -238h168z" />
<glyph unicode="&#x103;" d="M146 646q19 -30 48.5 -50t63.5 -20q65 0 119 70l29 -42q-27 -36 -65.5 -58t-82.5 -22q-40 0 -79 20.5t-69 56.5zM91 403q61 64 163 64q54 0 95 -19.5t64 -56.5q22 -37 22 -108v-283h-68v50q-75 -61 -164 -61q-69 0 -111.5 38t-42.5 91q0 40 26.5 76t78.5 55 q27 10 65 14.5t61 5t71 0.5h15v17q0 54 -15 78q-27 44 -94 44q-82 0 -131 -51zM369 214h-17q-5 0 -35.5 0.5t-43.5 0t-34.5 -2t-36.5 -5.5q-40 -10 -60.5 -33.5t-20.5 -50.5q0 -32 26.5 -55.5t69.5 -23.5q40 0 71 17t49 37q15 15 22 32t8.5 27.5t1.5 26.5v30z" />
<glyph unicode="&#x104;" d="M326 236l-88 238l-80 -238h168zM15 -1l220 635h8l240 -634h1q-37 -33 -67 -67q-17 -19 -17 -35q0 -12 8 -20t22 -8q9 0 24 5q19 7 32 18v-46q-27 -23 -69 -23q-38 0 -58.5 17.5t-20.5 43.5q0 50 80 115h-7l-69 182h-198l-60 -183h-69z" />
<glyph unicode="&#x105;" d="M369 214h-17q-5 0 -35.5 0.5t-43.5 0t-34.5 -2t-36.5 -5.5q-40 -10 -60.5 -33.5t-20.5 -50.5q0 -32 26.5 -55.5t69.5 -23.5q40 0 71 17t49 37q15 15 22 32t8.5 27.5t1.5 26.5v30zM91 403q61 64 163 64q54 0 95 -19.5t64 -56.5q22 -37 22 -108v-283h-1q-37 -33 -67 -67 q-17 -19 -17 -35q0 -12 8 -20t22 -8q9 0 24 5q19 7 32 18v-46q-27 -23 -69 -23q-38 0 -58.5 17.5t-20.5 43.5q0 50 80 115h-1v50q-75 -61 -164 -61q-69 0 -111.5 38t-42.5 91q0 40 26.5 76t78.5 55q27 10 65 14.5t61 5t71 0.5h15v17q0 54 -15 78q-27 44 -94 44 q-82 0 -131 -51z" />
<glyph unicode="&#x106;" d="M308 791l40 -70l-169 -61l-24 42zM278 628q41 0 78.5 -15t66.5 -43t46 -65l-67 -33q-4 3 -4 10v4v3q0 5 -3 11q-20 33 -52 52.5t-68 19.5q-69 0 -117.5 -69.5t-48.5 -188.5q0 -121 50 -192.5t122 -71.5q37 0 71.5 20.5t55.5 55.5l52 -34q-29 -48 -78 -75t-105 -27 q-32 0 -64 9.5t-63.5 33t-55.5 59t-38.5 91.5t-14.5 125q0 72 15.5 129t39.5 92t56.5 58t63 32t62.5 9z" />
<glyph unicode="&#x107;" d="M292 699l63 -42l-101 -135l-50 30zM457 381l-51 -59q-5 3 -5 11.5t-1.5 11.5t-6 8.5t-14.5 15t-23 17t-33 13.5t-42 6q-64 0 -107.5 -46.5t-43.5 -122.5q0 -80 45 -131t112 -51q72 0 121 56l42 -49q-68 -72 -169 -72q-97 0 -161 68t-64 171t64.5 170.5t165.5 67.5 q54 0 98.5 -22.5t72.5 -62.5z" />
<glyph unicode="&#x10c;" d="M413 755l-131 -99h-21l-124 97l33 38l104 -70l111 68zM278 628q41 0 78.5 -15t66.5 -43t46 -65l-67 -33q-4 3 -4 10v4v3q0 5 -3 11q-20 33 -52 52.5t-68 19.5q-69 0 -117.5 -69.5t-48.5 -188.5q0 -121 50 -192.5t122 -71.5q37 0 71.5 20.5t55.5 55.5l52 -34 q-29 -48 -78 -75t-105 -27q-32 0 -64 9.5t-63.5 33t-55.5 59t-38.5 91.5t-14.5 125q0 72 15.5 129t39.5 92t56.5 58t63 32t62.5 9z" />
<glyph unicode="&#x10d;" d="M457 381l-51 -59q-5 3 -5 11.5t-1.5 11.5t-6 8.5t-14.5 15t-23 17t-33 13.5t-42 6q-64 0 -107.5 -46.5t-43.5 -122.5q0 -80 45 -131t112 -51q72 0 121 56l42 -49q-68 -72 -169 -72q-97 0 -161 68t-64 171t64.5 170.5t165.5 67.5q54 0 98.5 -22.5t72.5 -62.5zM377 658 l-111 -140h-22l-110 141l46 35l78 -103l81 102z" />
<glyph unicode="&#x10e;" d="M371 755l-131 -99h-22l-123 97l33 38l103 -70l112 68zM54 623h145q48 0 81 -6.5t64 -26.5q30 -19 52.5 -48.5t36 -65.5t20.5 -77t7 -86q0 -69 -15.5 -125.5t-47 -98.5t-75.5 -65q-49 -25 -135 -25h-133v624zM120 564v-510h64q37 0 63.5 5.5t52.5 22.5q90 61 90 221 q0 162 -78 226q-26 22 -53 28.5t-64 6.5h-75z" />
<glyph unicode="&#x10f;" d="M309 390v275h68v-623q0 -25 4 -42h-71q-4 13 -4 34v39q-22 -37 -57.5 -60t-76.5 -23q-73 0 -122.5 68.5t-49.5 173.5q0 108 54 172.5t127 64.5q41 0 75.5 -21.5t52.5 -57.5zM185 410q-24 0 -45.5 -12.5t-36.5 -35t-24 -54t-9 -67.5q0 -75 32.5 -131.5t85.5 -56.5 q28 0 53 17t40 42q22 37 22 108q0 51 -2.5 76.5t-12.5 46.5q-14 30 -44 48.5t-59 18.5zM509 605q0 -64 -85 -151l-28 24q23 21 41 50q11 20 11 34q0 16 -18 28q-23 15 -23 35q0 19 13.5 32.5t32.5 13.5q23 0 39.5 -18.5t16.5 -47.5z" />
<glyph unicode="&#x110;" d="M79 623h139q23 0 39.5 -1.5t34.5 -5t34.5 -11t32.5 -19.5q54 -40 80.5 -113t26.5 -158q0 -103 -38.5 -183.5t-108.5 -113.5q-41 -19 -113 -19h-127v302h-49v58h49v264zM143 301v-244h60q66 0 104 26q44 30 68 89t24 134q0 126 -53 198q-19 27 -45.5 41.5t-43.5 16.5 t-43 2h-71v-205h105v-58h-105z" />
<glyph unicode="&#x111;" d="M234 410q-14 0 -28 -3.5t-28.5 -10.5t-26.5 -20t-22 -31t-15.5 -44t-5.5 -57q0 -53 12.5 -92.5t32.5 -59.5t41 -29.5t42 -9.5q37 0 68.5 23.5t44.5 63.5q9 30 9 83q0 69 -7 98q-13 46 -47 67.5t-70 21.5zM432 544v-502q0 -25 5 -42h-72q-4 13 -4 34v39q-22 -38 -60 -60.5 t-81 -22.5q-35 0 -66.5 14.5t-57.5 43t-42 76t-16 108.5q0 63 17.5 110.5t46.5 74t61.5 39.5t66.5 13q47 0 82 -21.5t52 -57.5v154h-76v53h76v68h77q0 -6 -5 -15q-5 -6 -4 -13v-40h44v-53h-44z" />
<glyph unicode="&#x118;" d="M59 624h382v-62h-316v-205h261v-64h-261v-231h313v-62h-1q-37 -33 -67 -67q-17 -19 -17 -35q0 -12 8 -20t21 -8q10 0 24 5q19 7 32 18v-46q-26 -23 -69 -23q-37 0 -57.5 17.5t-20.5 43.5q0 50 79 115h-311v624z" />
<glyph unicode="&#x119;" d="M259 468q30 0 57.5 -8.5t53 -26.5t44 -51t26.5 -77q7 -42 3 -87h-325q2 -48 18 -83.5t40 -53t48 -25.5t50 -8q72 0 118 51l40 -39l-36 -44q-3 -3 -8 -10q-20 -24 -29 -36t-17 -28.5t-8 -29.5q0 -17 11 -28t28 -11q21 0 51 19l-1 -49q-33 -18 -66 -18q-37 0 -60 21.5 t-23 52.5q0 48 56 100q-34 -9 -69 -9q-92 0 -152 63t-60 173q0 116 61 179t149 63zM121 274h251q6 56 -28.5 97.5t-89.5 41.5q-20 0 -40 -7t-39.5 -22t-34 -43.5t-19.5 -66.5z" />
<glyph unicode="&#x11a;" d="M397 755l-131 -99h-22l-123 97l33 38l103 -70l112 68zM59 624h382v-62h-316v-205h261v-64h-261v-231h313v-62h-379v624z" />
<glyph unicode="&#x11b;" d="M377 658l-111 -140h-22l-110 141l46 35l78 -103l81 102zM259 468q29 0 56.5 -8.5t53.5 -26.5t44.5 -50.5t26.5 -76.5q7 -43 3 -88h-325q2 -48 18 -83.5t40 -53t48 -25.5t50 -8q72 0 118 51l40 -39q-59 -70 -164 -70q-97 0 -158 61.5t-61 171.5q0 119 60.5 182t149.5 63z M121 274h251q6 56 -28.5 97.5t-89.5 41.5q-20 0 -40 -7t-39.5 -22t-34 -43.5t-19.5 -66.5z" />
<glyph unicode="&#x11e;" d="M146 791q19 -31 48.5 -51t63.5 -20q65 0 119 70l29 -42q-27 -36 -65.5 -58t-82.5 -22q-40 0 -79 20.5t-69 56.5zM277 629q58 0 106 -28t75 -76l-49 -50q-6 4 -13 19q-15 33 -47 53.5t-72 20.5q-42 0 -79.5 -23t-60.5 -66q-32 -59 -32 -160q0 -145 60 -213q47 -54 118 -54 q59 0 112 38v148h-113v61h178v-244q-88 -65 -183 -65q-34 0 -67 10t-65 33.5t-55.5 58t-38.5 89.5t-15 123q0 78 17.5 138.5t43.5 94.5t60 56t63 29t57 7z" />
<glyph unicode="&#x11f;" d="M146 646q19 -30 48.5 -50t63.5 -20q65 0 119 70l29 -42q-27 -36 -65.5 -58t-82.5 -22q-40 0 -79 20.5t-69 56.5zM126 314q0 -27 13.5 -50t36.5 -36.5t51 -13.5q41 0 70.5 29.5t29.5 70.5q0 28 -13.5 51t-36.5 36.5t-50 13.5q-42 0 -71.5 -29.5t-29.5 -71.5zM231 472 q64 0 108 -44q55 46 127 41l9 -59q-13 2 -27 2q-43 0 -79 -22q23 -35 23 -77q0 -64 -48.5 -110.5t-116.5 -46.5q-30 0 -58 11q-32 -27 -32 -52q0 -22 27 -30q21 -5 65 -5q9 0 38 0.5t43 0t35.5 -3.5t38.5 -10q35 -14 53 -41t18 -58q0 -25 -11.5 -48.5t-35 -44.5t-66 -34 t-97.5 -13q-110 0 -158.5 32t-48.5 76q0 54 75 101q-37 20 -37 61q0 45 52 88q-32 21 -50 54t-18 70q0 67 51 114.5t120 47.5zM161 24q-57 -31 -57 -71q0 -38 45 -56q38 -15 95 -15q65 0 102 20q43 24 43 61q0 11 -4.5 21.5t-17.5 19.5t-32 12q-12 2 -29.5 2.5t-33.5 0 t-34 0.5q-48 2 -77 5z" />
<glyph unicode="&#x130;" d="M237 791q14 0 26 -6.5t19 -18.5t7 -26q0 -21 -15 -36t-36.5 -15t-36.5 15t-15 36t15 36t36 15zM88 623h309v-59h-123v-507h129v-58h-322v59h123v506h-116v59z" />
<glyph unicode="&#x131;" d="M106 457h183v-399h107v-58h-296v58h117v341h-111v58z" />
<glyph unicode="&#x138;" d="M66 457h82q1 -2 1 -3q0 -4 -7 -13q-3 -4 -3 -10v-184l229 212q21 -5 53 -5h26l-192 -181l224 -274h-7l-86 -3l-187 233l-60 -56v-174h-73v458z" />
<glyph unicode="&#x139;" d="M308 791l40 -70l-169 -61l-24 42zM66 623h82q1 -7 -4 -16t-5 -18v-529h300v-61h-373v624z" />
<glyph unicode="&#x13a;" d="M85 665h202v-607h134v-58h-342v58h135v549h-129v58zM308 835l40 -70l-169 -62l-24 42z" />
<glyph unicode="&#x13d;" d="M423 562q0 -65 -85 -151l-28 24q23 21 40 50q12 20 12 33q0 16 -19 29q-22 15 -22 35q0 19 13.5 32.5t32.5 13.5q15 0 27.5 -8t20.5 -23.5t8 -34.5zM66 623h82q1 -7 -4 -16t-5 -18v-529h300v-61h-373v624z" />
<glyph unicode="&#x13e;" d="M475 605q0 -64 -86 -151l-27 24q22 21 40 50q12 20 12 34q0 16 -19 28q-22 15 -22 35q0 19 13.5 32.5t32.5 13.5q14 0 26.5 -8t21 -23.5t8.5 -34.5zM67 665h202v-607h135v-58h-343v58h136v549h-130v58z" />
<glyph unicode="&#x141;" d="M73 623h81q1 -1 1 -3q0 -6 -4.5 -14t-4.5 -17v-261l166 54q17 6 25 10v-64l-191 -61v-207h300v-61h-373v244l-53 -17v61l53 18v318z" />
<glyph unicode="&#x142;" d="M85 665h202v-295l64 23q12 4 27 14v-73l-91 -31v-245h134v-58h-342v58h135v221l-79 -27v66l79 27v262h-129v58z" />
<glyph unicode="&#x143;" d="M308 791l40 -70l-169 -61l-24 42zM50 0v623h68l262 -462v463h74q1 -6 -3 -13t-4 -14v-598h-55l-275 491v-490h-67z" />
<glyph unicode="&#x144;" d="M292 699l63 -42l-101 -135l-50 30zM68 0v457h74v-81q26 41 66.5 66.5t84.5 25.5q40 0 72.5 -21.5t49.5 -59.5q17 -37 17 -110v-277h-71v275q0 13 -0.5 20.5t-1.5 20.5t-3.5 22t-7.5 19.5t-12 18.5q-24 29 -62 29q-32 0 -62.5 -20.5t-47.5 -42.5q-22 -31 -22 -79v-263h-74 z" />
<glyph unicode="&#x147;" d="M397 755l-131 -99h-22l-123 97l33 38l103 -70l112 68zM50 0v623h68l262 -462v463h74q1 -6 -3 -13t-4 -14v-598h-55l-275 491v-490h-67z" />
<glyph unicode="&#x148;" d="M377 658l-111 -140h-22l-110 141l46 35l78 -103l81 102zM68 0v457h74v-81q26 41 66.5 66.5t84.5 25.5q40 0 72.5 -21.5t49.5 -59.5q17 -37 17 -110v-277h-71v275q0 13 -0.5 20.5t-1.5 20.5t-3.5 22t-7.5 19.5t-12 18.5q-24 29 -62 29q-32 0 -62.5 -20.5t-47.5 -42.5 q-22 -31 -22 -79v-263h-74z" />
<glyph unicode="&#x14a;" d="M51 0v623h73v-81q27 42 70.5 67t91.5 25q47 0 85.5 -24t58.5 -67q19 -41 19 -119v-249q0 -67 -17 -103q-18 -39 -54.5 -61t-80.5 -22q-46 0 -87 25l35 62q3 -2 6 -6t5 -6q17 -12 44 -12q46 0 67 44q11 24 11 74v252q0 63 -15 94q-14 26 -37.5 40.5t-51.5 14.5 q-37 0 -72 -22.5t-55 -50.5q-23 -33 -23 -85v-413h-73z" />
<glyph unicode="&#x14b;" d="M68 0v457h74v-81q26 41 66.5 66.5t84.5 25.5q40 0 72.5 -21.5t49.5 -59.5q17 -37 17 -110v-221q0 -83 -18 -126q-14 -34 -37.5 -58t-53 -36t-61.5 -12q-54 0 -97 34l34 67q3 -1 4.5 -3t2.5 -5.5t2 -4.5q2 -3 8.5 -7t20 -9t27.5 -5q47 0 75 43q22 34 22 111v230 q0 13 -0.5 20.5t-1.5 20.5t-3.5 22t-7.5 19.5t-12 18.5q-24 29 -62 29q-32 0 -62.5 -20.5t-47.5 -42.5q-22 -31 -22 -79v-263h-74z" />
<glyph unicode="&#x14d;" d="M123 621h254v-56h-254v56zM460 226q0 -109 -60 -173.5t-145 -64.5q-89 0 -152 67.5t-63 169.5q0 104 64 173t153 69q83 0 143 -64t60 -177zM252 406q-56 0 -96 -47.5t-40 -127.5q0 -54 20 -96t51 -63.5t68 -21.5q54 0 93.5 46t39.5 127q0 88 -41 135.5t-95 47.5z" />
<glyph unicode="&#x150;" d="M411 810l46 -64l-145 -101l-32 41zM233 810l47 -64l-146 -101l-32 41zM471 310q0 -124 -37 -199q-20 -40 -50 -68t-62.5 -40.5t-67.5 -12.5q-30 0 -60 10t-60 34t-53 59.5t-37.5 92t-14.5 127.5q0 59 10 108t27.5 83t39.5 59t48 39.5t50.5 21t49.5 6.5q53 0 101.5 -30 t77.5 -87q38 -75 38 -203zM251 564q-27 0 -52 -12t-48.5 -38.5t-38 -76t-14.5 -115.5q0 -71 14.5 -124.5t38 -82.5t49.5 -42.5t54 -13.5q35 0 67 20.5t52 63.5q28 59 28 158q0 105 -24 165q-20 50 -54.5 74t-71.5 24z" />
<glyph unicode="&#x151;" d="M214 699l63 -42l-101 -135l-50 30zM369 699l63 -42l-101 -135l-50 30zM460 226q0 -109 -60 -173.5t-145 -64.5q-89 0 -152 67.5t-63 169.5q0 104 64 173t153 69q83 0 143 -64t60 -177zM252 406q-56 0 -96 -47.5t-40 -127.5q0 -54 20 -96t51 -63.5t68 -21.5q54 0 93.5 46 t39.5 127q0 88 -41 135.5t-95 47.5z" />
<glyph unicode="&#x152;" d="M253 595v29h231v-62h-169v-205h143v-64h-143v-231h167v-62h-230v31q-32 -38 -82 -38q-41 0 -79.5 31t-58.5 96q-23 74 -23 192q0 141 34 219q23 53 57.5 77t70.5 24q48 0 82 -37zM73 324q0 -133 28 -201q28 -69 78 -69q26 0 46 21t27 54v356q-11 34 -31 61.5t-50 27.5 q-24 0 -44.5 -20t-33.5 -59q-20 -59 -20 -171z" />
<glyph unicode="&#x153;" d="M161 466q60 0 94 -46q39 46 101 46q38 0 71 -21.5t49 -64.5q4 -9 6.5 -19t4 -21.5t2.5 -20t1 -23v-20.5v-23v-21v-11h-228q1 -87 15 -118q12 -28 37 -42t55 -14q56 0 90 38l35 -43q-52 -54 -127 -54q-65 0 -114 41q-45 -40 -99 -40q-34 0 -66.5 19.5t-53.5 61.5 q-28 57 -28 166q0 94 28 147q22 41 56 62t71 21zM263 278h168v9q0 62 -16 87q-22 37 -67 37q-54 0 -74 -54q-12 -31 -11 -79zM66 246q0 -77 15 -123q12 -38 34 -55.5t48 -17.5q20 0 35 10.5t15 28.5q0 3 -3.5 22.5t-6.5 53t-3 71.5q0 33 2.5 61t4.5 44.5t2 20.5 q0 19 -14 31.5t-34 12.5q-22 0 -43 -15t-34 -43q-18 -39 -18 -102z" />
<glyph unicode="&#x154;" d="M308 791l40 -70l-169 -61l-24 42zM56 623h184q78 0 119 -21q42 -21 65 -61.5t23 -88.5q0 -62 -35 -110.5t-92 -63.5l144 -278h-78l-138 275h-121v-275h-71v623zM127 557v-220h121q47 0 72 12q27 14 41 39.5t14 55.5q0 32 -15 59t-44 41q-26 13 -76 13h-113z" />
<glyph unicode="&#x155;" d="M292 699l63 -42l-101 -135l-50 30zM99 457h75l-2 -88q21 47 66.5 73t97.5 26q74 0 122 -50l-33 -69q-5 4 -10.5 12.5t-6.5 10.5q-27 34 -76 34q-79 0 -128 -77q-15 -23 -22.5 -44t-8.5 -33t-1 -30v-223h-73v458z" />
<glyph unicode="&#x158;" d="M397 755l-131 -99h-22l-123 97l33 38l103 -70l112 68zM56 623h184q78 0 119 -21q42 -21 65 -61.5t23 -88.5q0 -62 -35 -110.5t-92 -63.5l144 -278h-78l-138 275h-121v-275h-71v623zM127 557v-220h121q47 0 72 12q27 14 41 39.5t14 55.5q0 32 -15 59t-44 41q-26 13 -76 13 h-113z" />
<glyph unicode="&#x159;" d="M377 658l-111 -140h-22l-110 141l46 35l78 -103l81 102zM99 457h75l-2 -88q21 47 66.5 73t97.5 26q74 0 122 -50l-33 -69q-5 4 -10.5 12.5t-6.5 10.5q-27 34 -76 34q-79 0 -128 -77q-15 -23 -22.5 -44t-8.5 -33t-1 -30v-223h-73v458z" />
<glyph unicode="&#x15a;" d="M308 791l40 -70l-169 -61l-24 42zM435 549l-44 -60q-5 2 -5.5 8.5t-2.5 9.5q-19 28 -52 45t-74 17q-52 0 -82.5 -27t-30.5 -64q0 -56 64 -93q14 -9 90.5 -41t108.5 -62q48 -45 48 -112q0 -32 -11.5 -62t-35 -57.5t-65 -44t-96.5 -16.5q-121 0 -195 80l41 72q5 -3 5 -10 t3 -11q23 -29 62 -48.5t86 -19.5q64 0 100.5 34t36.5 79q0 53 -53 86q-18 11 -90 40.5t-104 52.5q-67 49 -67 122q0 65 54 112.5t136 47.5q51 0 96 -20.5t77 -57.5z" />
<glyph unicode="&#x15b;" d="M292 699l63 -42l-101 -135l-50 30zM432 396l-42 -63q-5 1 -5 8t-2 10q-11 14 -26 26.5t-43 24t-58 11.5q-40 0 -68 -17.5t-28 -44.5q0 -34 45 -55q18 -9 78.5 -26.5t89.5 -33.5q67 -38 67 -104q0 -56 -51 -99t-139 -43q-115 0 -193 72l41 72q5 -2 4.5 -9.5t3.5 -10.5 q7 -9 17.5 -17.5t29 -20t43.5 -19t53 -7.5q49 0 83 20.5t34 51.5q0 37 -46 59q-19 9 -65.5 23t-56.5 18q-12 5 -18 7t-22 9.5t-26 16.5t-22 21t-18 28.5t-6 35.5q0 53 49 90.5t127 37.5q105 0 170 -72z" />
<glyph unicode="&#x15e;" d="M435 549l-44 -60q-5 2 -5.5 8.5t-2.5 9.5q-19 28 -52 45t-74 17q-52 0 -82.5 -27t-30.5 -64q0 -56 64 -93q14 -9 90.5 -41t108.5 -62q48 -45 48 -112q0 -24 -6 -47t-20 -45.5t-35 -40.5t-52.5 -31t-69.5 -16l-4 -37l16 -1q26 -2 39 -8q29 -14 29 -47q0 -18 -11.5 -34.5 t-36.5 -28t-60 -11.5q-66 0 -119 37l25 42q44 -36 99 -36q12 0 20.5 2t13 4.5t7.5 6t4 6.5t1 6q0 10 -10.5 17t-36.5 7h-30l10 75q-109 7 -176 80l41 72q5 -3 5 -10t3 -11q23 -29 62 -48.5t86 -19.5q64 0 100.5 34t36.5 79q0 53 -53 86q-18 11 -90 40.5t-104 52.5 q-67 49 -67 122q0 65 54 112.5t136 47.5q51 0 96 -20.5t77 -57.5z" />
<glyph unicode="&#x15f;" d="M432 396l-42 -63q-5 1 -5 8t-2 10q-11 14 -26 26.5t-43 24t-58 11.5q-40 0 -68 -17.5t-28 -44.5q0 -34 45 -55q18 -9 78.5 -26.5t89.5 -33.5q67 -38 67 -104q0 -33 -18 -62.5t-55.5 -51.5t-88.5 -27l-4 -38l16 -1q26 -2 39 -8q29 -14 29 -47q0 -18 -11.5 -34.5t-36.5 -28 t-60 -11.5q-66 0 -119 37l25 42q44 -36 100 -36q11 0 19.5 2t13 4.5t7.5 6t4 6.5t1 6q0 10 -10.5 17t-36.5 7h-30l10 75q-105 5 -177 72l41 72q5 -2 4.5 -9.5t3.5 -10.5q7 -9 17.5 -17.5t29 -20t43.5 -19t53 -7.5q49 0 83 20.5t34 51.5q0 37 -46 59q-19 9 -65.5 23t-56.5 18 q-12 5 -18 7t-22 9.5t-26 16.5t-22 21t-18 28.5t-6 35.5q0 53 49 90.5t127 37.5q105 0 170 -72z" />
<glyph unicode="&#x160;" d="M402 755l-131 -99h-22l-123 97l33 38l103 -70l112 68zM435 549l-44 -60q-5 2 -5.5 8.5t-2.5 9.5q-19 28 -52 45t-74 17q-52 0 -82.5 -27t-30.5 -64q0 -56 64 -93q14 -9 90.5 -41t108.5 -62q48 -45 48 -112q0 -32 -11.5 -62t-35 -57.5t-65 -44t-96.5 -16.5q-121 0 -195 80 l41 72q5 -3 5 -10t3 -11q23 -29 62 -48.5t86 -19.5q64 0 100.5 34t36.5 79q0 53 -53 86q-18 11 -90 40.5t-104 52.5q-67 49 -67 122q0 65 54 112.5t136 47.5q51 0 96 -20.5t77 -57.5z" />
<glyph unicode="&#x161;" d="M377 658l-111 -140h-22l-110 141l46 35l78 -103l81 102zM432 396l-42 -63q-5 1 -5 8t-2 10q-11 14 -26 26.5t-43 24t-58 11.5q-40 0 -68 -17.5t-28 -44.5q0 -34 45 -55q18 -9 78.5 -26.5t89.5 -33.5q67 -38 67 -104q0 -56 -51 -99t-139 -43q-115 0 -193 72l41 72 q5 -2 4.5 -9.5t3.5 -10.5q7 -9 17.5 -17.5t29 -20t43.5 -19t53 -7.5q49 0 83 20.5t34 51.5q0 37 -46 59q-19 9 -65.5 23t-56.5 18q-12 5 -18 7t-22 9.5t-26 16.5t-22 21t-18 28.5t-6 35.5q0 53 49 90.5t127 37.5q105 0 170 -72z" />
<glyph unicode="&#x162;" d="M31 624h432v-63h-184v-562h-12l-6 -46l17 -1q25 -2 39 -8q29 -14 29 -47q0 -18 -11.5 -34.5t-36.5 -28t-60 -11.5q-66 0 -119 37l25 42q44 -36 99 -36q12 0 20.5 2t13 4.5t7.5 6t4 6.5t1 6q0 10 -11 17t-36 7h-30l11 84h-15v562h-177v63z" />
<glyph unicode="&#x163;" d="M188 579l79 13q1 -6 0.5 -9t-3 -8.5t-3.5 -9.5l-12 -108h150v-59h-150q-9 -89 -9 -179q0 -66 3 -88q5 -38 26.5 -55.5t50.5 -17.5q46 0 102 41l22 -57q-17 -12 -36 -22t-42 -17.5t-45 -9.5l-4 -40l16 -1q26 -2 39 -8q29 -14 29 -47q0 -29 -28.5 -51.5t-79.5 -22.5 q-66 0 -119 37l25 42q44 -36 100 -36q25 0 35 7.5t10 17.5t-10.5 17t-36.5 7h-29l10 78q-55 6 -84 47q-12 17 -18.5 41t-7.5 40t-1 43q0 117 10 234h-107l1 59h109z" />
<glyph unicode="&#x164;" d="M397 755l-131 -99h-22l-123 97l33 38l103 -70l112 68zM31 624h432v-63h-184v-562h-71v562h-177v63z" />
<glyph unicode="&#x165;" d="M483 639q0 -64 -85 -150l-28 24q23 21 41 50q12 19 12 33q0 16 -19 29q-22 14 -22 35q0 18 13 32t33 14q14 0 26.5 -8t20.5 -23.5t8 -35.5zM162 579l79 13q1 -6 0.5 -9t-3 -8.5t-3.5 -9.5l-11 -108h149v-59h-150q-9 -89 -9 -179q0 -66 3 -88q5 -38 26.5 -55.5t50.5 -17.5 q46 0 102 41l23 -57q-70 -51 -146 -51q-70 0 -105 49q-12 17 -18.5 41t-7 40t-0.5 43q0 117 9 234h-107l1 59h109z" />
<glyph unicode="&#x16e;" d="M344 706.5q0 -36.5 -26.5 -62t-64.5 -25.5q-25 0 -46 11.5t-33.5 32t-12.5 44.5q0 36 27 62t65 26t64.5 -26t26.5 -62.5zM212 707q0 -19 12.5 -32t29.5 -13t29 13t12 33q0 19 -12 32t-29 13t-29.5 -13t-12.5 -33zM50 623h79q1 -2 1 -5q0 -4 -7 -14q-4 -5 -4 -13v-377 q0 -60 15 -92q16 -35 48.5 -54.5t70.5 -19.5q37 0 69.5 19t48.5 54q16 33 16 96v406h67v-405q0 -42 -4.5 -72.5t-20.5 -59.5q-26 -47 -73.5 -72t-103.5 -25q-57 0 -104.5 25t-73.5 72q-15 28 -19.5 57.5t-4.5 71.5v408z" />
<glyph unicode="&#x16f;" d="M348 605q0 -36 -27 -62t-65 -26q-25 0 -46 12t-33 32t-12 44q0 36 26.5 62t64.5 26t65 -26t27 -62zM216 606q0 -19 12 -32.5t29 -13.5t29.5 13.5t12.5 32.5t-12.5 32.5t-29.5 13.5t-29 -13.5t-12 -32.5zM63 457h72v-255q0 -67 17 -99q9 -17 22.5 -30t30 -19.5t34.5 -6.5 q32 0 60.5 19.5t44.5 48.5q18 33 18 90v252h73v-416q0 -25 5 -41h-76q-2 14 -2 35l1 35q-22 -38 -60 -59.5t-81 -21.5q-45 0 -83.5 24.5t-58.5 68.5q-18 41 -18 120z" />
<glyph unicode="&#x170;" d="M411 810l46 -64l-145 -101l-32 41zM233 810l47 -64l-146 -101l-32 41zM50 623h79q1 -2 1 -5q0 -4 -7 -14q-4 -5 -4 -13v-377q0 -60 15 -92q16 -35 48.5 -54.5t70.5 -19.5q37 0 69.5 19t48.5 54q16 33 16 96v406h67v-405q0 -42 -4.5 -72.5t-20.5 -59.5q-26 -47 -73.5 -72 t-103.5 -25q-57 0 -104.5 25t-73.5 72q-15 28 -19.5 57.5t-4.5 71.5v408z" />
<glyph unicode="&#x171;" d="M214 699l63 -42l-101 -135l-50 30zM369 699l63 -42l-101 -135l-50 30zM63 457h72v-255q0 -67 17 -99q9 -17 22.5 -30t30 -19.5t34.5 -6.5q32 0 60.5 19.5t44.5 48.5q18 33 18 90v252h73v-416q0 -25 5 -41h-76q-2 14 -2 35l1 35q-22 -38 -60 -59.5t-81 -21.5 q-45 0 -83.5 24.5t-58.5 68.5q-18 41 -18 120z" />
<glyph unicode="&#x178;" d="M209 738q0 -21 -15 -35.5t-36 -14.5q-13 0 -25 6.5t-18.5 18.5t-6.5 25q0 21 14.5 36t35.5 15q14 0 25.5 -7t18.5 -18.5t7 -25.5zM387 738q0 -21 -15 -35.5t-35.5 -14.5t-35 14.5t-14.5 35.5t14.5 36t35 15t35.5 -15t15 -36zM28 624h80l153 -303l138 302h74l-177 -377 v-246h-76v246z" />
<glyph unicode="&#x179;" d="M308 791l40 -70l-169 -61l-24 42zM62 623h385l-1 -49l-308 -513h294q7 0 15.5 3.5t15.5 2.5v-68h-413v49l314 512h-302v63z" />
<glyph unicode="&#x17a;" d="M292 699l63 -42l-101 -135l-50 30zM71 457h355v-49l-278 -347h271q7 0 15.5 3.5t15.5 2.5v-68h-400v49l283 346h-262v63z" />
<glyph unicode="&#x17b;" d="M254.5 783q21.5 0 36.5 -15t15 -36.5t-15 -36.5t-36 -15q-14 0 -26 7t-19 18.5t-7 25.5q0 22 15 37t36.5 15zM62 623h385l-1 -49l-308 -513h294q7 0 15.5 3.5t15.5 2.5v-68h-413v49l314 512h-302v63z" />
<glyph unicode="&#x17c;" d="M71 457h355v-49l-278 -347h271q7 0 15.5 3.5t15.5 2.5v-68h-400v49l283 346h-262v63zM254.5 656q21.5 0 36.5 -15t15 -36.5t-15 -36.5t-36 -15q-14 0 -26 7t-19 19t-7 26q0 21 15 36t36.5 15z" />
<glyph unicode="&#x17d;" d="M397 755l-131 -99h-22l-123 97l33 38l103 -70l112 68zM62 623h385l-1 -49l-308 -513h294q7 0 15.5 3.5t15.5 2.5v-68h-413v49l314 512h-302v63z" />
<glyph unicode="&#x17e;" d="M377 658l-111 -140h-22l-110 141l46 35l78 -103l81 102zM71 457h355v-49l-278 -347h271q7 0 15.5 3.5t15.5 2.5v-68h-400v49l283 346h-262v63z" />
<glyph unicode="&#x192;" d="M480 620l-33 -66q-7 0 -8 8q-3 11 -3 12q-8 17 -26 29.5t-41 12.5q-47 0 -70 -50q-12 -26 -18 -101l-6 -82h123v-57h-128l-24 -302q-7 -84 -32 -128q-14 -23 -33.5 -39.5t-39.5 -24t-41 -7.5q-49 0 -82 35l41 64q4 -2 10 -13q12 -19 36 -19q32 0 51 36q18 32 23 99 l22 299h-121v57h125l7 92q6 76 25 114q10 20 24.5 36t31.5 26.5t36 16t39 5.5q68 0 112 -53z" />
<glyph unicode="&#x237;" d="M126 457h243v-425q0 -37 -4 -63t-17 -52q-23 -44 -66 -67.5t-94 -23.5q-88 0 -140 64l47 62q3 -3 5 -9.5t4 -9.5q3 -6 11.5 -14.5t30.5 -19.5t46 -11q12 0 23 2.5t21.5 7t19.5 11.5t16 16t12 20q12 26 12 73v380h-170v59z" />
<glyph unicode="&#x2c6;" d="M134 545l111 140h22l110 -141l-46 -35l-78 103l-81 -102z" />
<glyph unicode="&#x2c7;" d="M377 658l-111 -140h-22l-110 141l46 35l78 -103l81 102z" />
<glyph unicode="&#x2c9;" d="M123 621h254v-56h-254v56z" />
<glyph unicode="&#x2cb;" d="M243 699l88 -147l-50 -30l-101 135z" />
<glyph unicode="&#x2d8;" d="M137 646q9 -14 20.5 -26t25.5 -22.5t31.5 -16t35.5 -5.5q64 0 119 70l28 -42q-27 -36 -65.5 -58t-81.5 -22q-41 0 -80 20.5t-69 56.5z" />
<glyph unicode="&#x2d9;" d="M254.5 656q21.5 0 36.5 -15t15 -36.5t-15 -36.5t-36 -15q-14 0 -26 7t-19 19t-7 26q0 21 15 36t36.5 15z" />
<glyph unicode="&#x2da;" d="M348 605q0 -36 -27 -62t-65 -26q-25 0 -46 12t-33 32t-12 44q0 36 26.5 62t64.5 26t65 -26t27 -62zM216 606q0 -19 12 -32.5t29 -13.5t29.5 13.5t12.5 32.5t-12.5 32.5t-29.5 13.5t-29 -13.5t-12 -32.5z" />
<glyph unicode="&#x2db;" d="M356 0h66q-37 -33 -67 -67q-17 -19 -17 -35q0 -12 8 -20t22 -8q9 0 24 5q18 7 32 18v-46q-27 -23 -69 -23q-38 0 -58.5 17.5t-20.5 43.5q0 50 80 115z" />
<glyph unicode="&#x2dc;" d="M135 557l-44 32q54 87 113 87q39 0 80 -43q30 -32 50 -32q7 0 13 2.5t12 9t9.5 10t12 15.5t11.5 16l37 -40q-30 -36 -51.5 -53.5t-47.5 -17.5q-19 0 -38 12t-31.5 26t-29 26t-30.5 12q-18 0 -31 -13.5t-35 -48.5z" />
<glyph unicode="&#x2dd;" d="M214 699l63 -42l-101 -135l-50 30zM369 699l63 -42l-101 -135l-50 30z" />
<glyph unicode="&#x2018;" d="M182 450q0 80 106 188l35 -31q-28 -25 -50 -62q-15 -24 -15 -41q0 -20 23 -36q28 -18 28 -44q0 -23 -16.5 -40t-40.5 -17q-28 0 -49 23t-21 60z" />
<glyph unicode="&#x2019;" d="M306 555q0 -80 -107 -188l-34 30q28 26 50 62q15 24 15 42q0 20 -23 35q-28 19 -28 45q0 23 16.5 40t40.5 17q28 0 49 -23t21 -60z" />
<glyph unicode="&#x201a;" d="M306 20q0 -80 -107 -188l-34 30q28 26 50 62q15 24 15 42q0 20 -23 35q-28 19 -28 45q0 23 16.5 40t40.5 17q28 0 49 -23t21 -60z" />
<glyph unicode="&#x201c;" d="M286 450q0 80 106 188l34 -31q-28 -25 -50 -62q-15 -24 -15 -41q0 -20 24 -36q28 -18 28 -44q0 -23 -17 -40t-41 -17q-28 0 -48.5 23t-20.5 60zM79 450q0 80 106 188l34 -31q-28 -25 -50 -62q-15 -24 -15 -41q0 -20 24 -36q28 -18 28 -44q0 -23 -17 -40t-41 -17 q-28 0 -48.5 23t-20.5 60z" />
<glyph unicode="&#x201d;" d="M202 555q0 -80 -106 -188l-35 30q29 26 51 62q14 24 14 42q0 20 -23 35q-28 19 -28 45q0 23 16.5 40t41.5 17q28 0 48.5 -23t20.5 -60zM409 555q0 -80 -106 -188l-35 30q29 26 51 62q14 24 14 42q0 20 -23 35q-28 19 -28 45q0 23 16.5 40t41.5 17q28 0 48.5 -23t20.5 -60 z" />
<glyph unicode="&#x201e;" d="M409 20q0 -80 -106 -188l-35 30q29 26 51 62q14 24 14 42q0 20 -23 35q-28 19 -28 45q0 23 16.5 40t41.5 17q28 0 48.5 -23t20.5 -60zM202 20q0 -80 -106 -188l-35 30q29 26 51 62q14 24 14 42q0 20 -23 35q-28 19 -28 45q0 23 16.5 40t41.5 17q28 0 48.5 -23t20.5 -60z " />
<glyph unicode="&#x2020;" d="M217 652h67v-195h166v-60h-166v-548h-67v548h-168v60h168v195z" />
<glyph unicode="&#x2021;" d="M217 652h67v-195h166v-60h-166v-276h166v-60h-166v-212h-67v212h-168v60h168v276h-168v60h168v195z" />
<glyph unicode="&#x2022;" d="M341 296.5q0 -34.5 -25 -59t-60 -24.5t-60 24.5t-25 58.5q0 23 11.5 42t31 30.5t42.5 11.5q35 0 60 -24.5t25 -59z" />
<glyph unicode="&#x2026;" d="M470 46q0 -24 -17 -40.5t-41.5 -16.5t-42 16.5t-17.5 40.5t17.5 41t42 17t41.5 -17t17 -41zM125 46q0 -24 -17 -40.5t-42 -16.5t-42 16.5t-17 40.5t17 41t42 17t42 -17t17 -41zM298 46q0 -24 -17.5 -40.5t-41.5 -16.5q-17 0 -30.5 7.5t-21.5 21t-8 28.5q0 24 17.5 41 t42 17t42 -17t17.5 -41z" />
<glyph unicode="&#x2039;" d="M145 253l152 147l39 -41l-121 -118l128 -140l-40 -40l-158 169v23z" />
<glyph unicode="&#x203a;" d="M343 253v-23l-158 -169l-40 40l128 140l-121 118l39 41z" />
<glyph unicode="&#x2044;" d="M76 -16l313 681l48 -27l-314 -680z" />
<glyph unicode="&#x2074;" d="M302 641h39v-245h63v-47h-63v-97h-57v98h-182v35zM285 544l-118 -148h118v148z" />
<glyph unicode="&#x20ac;" d="M464 574l-25 -68q-3 2 -4 6t-1.5 8t-2.5 6l-5.5 5.5t-13 11t-21 13t-29.5 10.5t-37 5q-51 0 -96 -33.5t-65 -103.5q-3 -10 -5 -20h247l-22 -58h-234q-2 -27 -2 -59v-21h206l-23 -58h-177q11 -61 41 -102q49 -67 132 -67q62 0 107 41l29 -50q-59 -51 -140 -51 q-27 0 -53 5.5t-56 22t-54 41t-43 66t-26 94.5h-58l13 58h40v16q0 34 2 64h-55l13 58h51q12 57 36 98q35 62 88 89t108 27q82 0 135 -54z" />
<glyph unicode="&#x2122;" d="M239 635v-40h-90v-275h-45v275h-86v40h221zM303 635l72 -145l37 72l38 73h33v-315h-42v215l-31 -55l-29 -53l-16 1l-55 107v-215h-42v315h35z" />
<glyph unicode="&#x2191;" d="M59 404l187 236h22l173 -238l-50 -33l-106 143v-546h-67v547l-116 -144z" />
<glyph unicode="&#x2193;" d="M441 203l-187 -237h-22l-173 239l50 33l106 -144v546h66v-546l117 144z" />
<glyph unicode="&#x2212;" d="M45 343h411v-61h-411v61z" />
<glyph unicode="&#x2423;" d="M48 70h47v-91h309v91h48v-136h-404v136z" />
<glyph unicode="&#xe000;" horiz-adv-x="455" d="M0 455h455v-455h-455v455z" />
<glyph horiz-adv-x="491" />
<glyph horiz-adv-x="483" />
<glyph horiz-adv-x="474" />
<glyph horiz-adv-x="466" />
<glyph horiz-adv-x="457" />
<glyph horiz-adv-x="448" />
<glyph horiz-adv-x="440" />
<glyph horiz-adv-x="431" />
<glyph horiz-adv-x="422" />
<glyph horiz-adv-x="414" />
<glyph horiz-adv-x="405" />
<glyph horiz-adv-x="396" />
<glyph horiz-adv-x="388" />
<glyph horiz-adv-x="379" />
<glyph horiz-adv-x="371" />
<glyph horiz-adv-x="362" />
<glyph horiz-adv-x="353" />
<glyph horiz-adv-x="345" />
<glyph horiz-adv-x="336" />
<glyph horiz-adv-x="327" />
<glyph horiz-adv-x="319" />
<glyph horiz-adv-x="310" />
<glyph horiz-adv-x="302" />
<glyph horiz-adv-x="293" />
<glyph horiz-adv-x="284" />
<glyph horiz-adv-x="276" />
<glyph horiz-adv-x="267" />
<glyph horiz-adv-x="258" />
<glyph horiz-adv-x="250" />
<glyph horiz-adv-x="241" />
<glyph horiz-adv-x="233" />
<glyph horiz-adv-x="224" />
<glyph horiz-adv-x="215" />
<glyph horiz-adv-x="207" />
<glyph horiz-adv-x="198" />
<glyph horiz-adv-x="189" />
<glyph horiz-adv-x="181" />
<glyph horiz-adv-x="172" />
<glyph horiz-adv-x="163" />
<glyph horiz-adv-x="155" />
<glyph horiz-adv-x="146" />
<glyph horiz-adv-x="138" />
<glyph horiz-adv-x="129" />
<glyph horiz-adv-x="120" />
<glyph horiz-adv-x="112" />
<glyph horiz-adv-x="103" />
<glyph horiz-adv-x="94" />
<glyph horiz-adv-x="86" />
<glyph horiz-adv-x="77" />
<glyph horiz-adv-x="69" />
<glyph horiz-adv-x="60" />
<glyph horiz-adv-x="51" />
<glyph horiz-adv-x="43" />
<glyph horiz-adv-x="34" />
<glyph horiz-adv-x="25" />
<glyph horiz-adv-x="17" />
<glyph horiz-adv-x="8" />
<glyph horiz-adv-x="0" />
<glyph horiz-adv-x="0" />
<glyph horiz-adv-x="0" />
<glyph horiz-adv-x="0" />
<glyph horiz-adv-x="0" />
<glyph horiz-adv-x="0" />
<glyph horiz-adv-x="0" />
<glyph d="M114 569l131 99h22l123 -98l-33 -38l-103 71l-112 -68z" />
<glyph d="M390 632l-131 -100h-22l-123 98l33 38l103 -71l112 68z" />
<glyph d="M207 672l153 -89l-23 -42l-170 61z" />
<glyph d="M325 672l40 -70l-169 -61l-23 42z" />
<glyph horiz-adv-x="0" />
<glyph d="M65 457h137l-3 -88q15 28 37.5 50.5t52 35t62.5 12.5q68 0 118 -49l-34 -69q-4 4 -9.5 12t-6.5 9q-27 35 -73 35q-62 0 -111 -68q-16 -24 -24.5 -45.5t-10 -33t-1.5 -28.5v-176h96v-55h-232v55h65v345h-63v58z" />
<glyph d="M411 810l46 -64l-145 -101l-32 41zM233 810l47 -64l-146 -101l-32 41z" />
<glyph d="M438 309q0 -142 -54 -231t-136 -89q-78 0 -131.5 82t-53.5 224q0 149 52 240.5t135 91.5q80 0 134 -87t54 -231zM250 566q-55 0 -85 -65q-36 -79 -36 -197q0 -100 30 -171q34 -80 94 -80q51 0 83 59q37 68 37 184q0 32 -4.5 68.5t-12 70t-17.5 56.5q-31 75 -89 75z" />
</font>
</defs>
</svg>
